<svg xmlns="http://www.w3.org/2000/svg" xmlns:xlink="http://www.w3.org/1999/xlink" viewBox="0 0 1920 1080"><defs><style>.a{fill:none;}.b{fill:#cbcbcb;}.c{fill:url(#a);}.d{fill:url(#b);}</style><pattern id="a" width="75" height="48.6" patternUnits="userSpaceOnUse" viewBox="0 0 75 48.6"><rect class="a" width="75" height="48.6"/><path class="b" d="M89,40c2,3,4,6.07,6.08,9.08.61.89.58,1.39-.36,2A42.06,42.06,0,0,0,84.11,61.4a2.05,2.05,0,0,1-1.3.89,41.82,41.82,0,0,0-13.58,5.84c-.92.6-1.41.54-2-.39-4-6.09-8.08-12.13-12.11-18.2-.3-.45-1-1-.26-1.55s1.14.3,1.47.78C60,54.31,63.75,59.86,67.41,65.44c.71,1.08,1.19,1.29,2.42.61a44.21,44.21,0,0,1,12-5,2.19,2.19,0,0,0,1.46-1,42.88,42.88,0,0,1,9.24-9.15c1.26-1,1-1.56.3-2.6-3.57-5.28-7.09-10.6-10.63-15.9l-.71-1.06c-.28-.44-.5-.87.1-1.24s.88.09,1.15.5c1.19,1.76,2.36,3.53,3.55,5.3Z"/><path class="b" d="M90.5,50.46a28.34,28.34,0,0,0-7.82,8.21,2.42,2.42,0,0,1-1.86,1.25,29.13,29.13,0,0,0-10.75,4.16c-1,.65-1.52.44-2.15-.51q-6.16-9.34-12.44-18.63c-.66-1-.59-1.52.43-2.15a33.54,33.54,0,0,1,10.75-4.22,2.54,2.54,0,0,0,1.71-1.13,33.51,33.51,0,0,1,8-8.32c1-.68,1.51-.61,2.16.41,2,3.16,4.16,6.27,6.25,9.4S88.8,45,90.88,48C91.62,49.06,91.67,49.62,90.5,50.46Zm-22-9.74a1.49,1.49,0,0,0-1.84-.67,39.24,39.24,0,0,0-9,3.38c-.77.38-.86.86-.37,1.59Q63,53.5,68.64,62c.35.53.7.73,1.34.4a40,40,0,0,1,10.08-3.87c0-.28,0-.42-.09-.51C76.14,52.24,72.29,46.49,68.48,40.72Zm9.41-9.51c-.51-.78-1-.72-1.62-.18a40.6,40.6,0,0,0-6.45,6.84,1.69,1.69,0,0,0,0,2.26c1.86,2.69,3.65,5.44,5.47,8.16l5.56,8.33c.36.55.69,1.11,1.28.24A38.31,38.31,0,0,1,89,49.7a1,1,0,0,0,.21-1.53Q83.54,39.71,77.89,31.21Z"/><path class="b" d="M14,40c2,3,4,6.07,6.08,9.08.61.89.58,1.39-.36,2A42.06,42.06,0,0,0,9.11,61.4a2.05,2.05,0,0,1-1.3.89A41.82,41.82,0,0,0-5.77,68.13c-.92.6-1.41.54-2-.39-4-6.09-8.08-12.13-12.11-18.2-.3-.45-1-1-.26-1.55s1.14.3,1.47.78C-15,54.31-11.25,59.86-7.59,65.44c.71,1.08,1.19,1.29,2.42.61a44.21,44.21,0,0,1,12-5,2.19,2.19,0,0,0,1.46-1,42.88,42.88,0,0,1,9.24-9.15c1.26-1,1-1.56.3-2.6C14.25,43,10.73,37.71,7.19,32.41l-.71-1.06c-.28-.44-.5-.87.1-1.24s.88.09,1.15.5c1.19,1.76,2.36,3.53,3.55,5.3Z"/><path class="b" d="M15.5,50.46a28.34,28.34,0,0,0-7.82,8.21,2.42,2.42,0,0,1-1.86,1.25A29.13,29.13,0,0,0-4.93,64.08c-1.05.65-1.52.44-2.15-.51q-6.16-9.34-12.44-18.63c-.66-1-.59-1.52.43-2.15A33.54,33.54,0,0,1-8.34,38.57a2.54,2.54,0,0,0,1.71-1.13,33.51,33.51,0,0,1,8-8.32c1-.68,1.51-.61,2.16.41,2,3.16,4.16,6.27,6.25,9.4S13.8,45,15.88,48C16.62,49.06,16.67,49.62,15.5,50.46Zm-22-9.74a1.49,1.49,0,0,0-1.84-.67,39.24,39.24,0,0,0-9,3.38c-.77.38-.86.86-.37,1.59Q-12,53.5-6.36,62c.35.53.7.73,1.34.4A40,40,0,0,1,5.06,58.51c0-.28,0-.42-.09-.51C1.14,52.24-2.71,46.49-6.52,40.72Zm9.41-9.51c-.51-.78-1-.72-1.62-.18a40.6,40.6,0,0,0-6.45,6.84,1.69,1.69,0,0,0,0,2.26c1.86,2.69,3.65,5.44,5.47,8.16l5.56,8.33c.36.55.69,1.11,1.28.24A38.31,38.31,0,0,1,14,49.7a1,1,0,0,0,.21-1.53Q8.54,39.71,2.89,31.21Z"/><path class="b" d="M89-8.6c2,3,4,6.08,6.08,9.08.61.89.58,1.39-.36,2A41.72,41.72,0,0,0,84.11,12.81a2.08,2.08,0,0,1-1.3.88,42,42,0,0,0-13.58,5.84c-.92.6-1.41.55-2-.39C63.19,13.06,59.12,7,55.09.94c-.3-.45-1-1-.26-1.54S56-.31,56.3.18C60,5.72,63.75,11.26,67.41,16.85c.71,1.07,1.19,1.29,2.42.6a43.87,43.87,0,0,1,12-5,2.24,2.24,0,0,0,1.46-1,42.6,42.6,0,0,1,9.24-9.14c1.26-1,1-1.57.3-2.61-3.57-5.28-7.09-10.6-10.63-15.9-.24-.35-.48-.7-.71-1.06s-.5-.87.1-1.23.88.09,1.15.49c1.19,1.76,2.36,3.53,3.55,5.3Z"/><path class="b" d="M90.5,1.86a28.25,28.25,0,0,0-7.82,8.22,2.44,2.44,0,0,1-1.86,1.25,28.94,28.94,0,0,0-10.75,4.15c-1,.65-1.52.45-2.15-.5Q61.76,5.62,55.48-3.66c-.66-1-.59-1.52.43-2.15A33.78,33.78,0,0,1,66.66-10a2.5,2.5,0,0,0,1.71-1.13,33.47,33.47,0,0,1,8-8.31c1-.69,1.51-.62,2.16.4,2,3.17,4.16,6.28,6.25,9.41s4,6.09,6.09,9.07C91.62.47,91.67,1,90.5,1.86Zm-22-9.74a1.49,1.49,0,0,0-1.84-.67,39.72,39.72,0,0,0-9,3.38c-.77.38-.86.87-.37,1.6q5.69,8.46,11.33,17c.35.53.7.74,1.34.4A39.55,39.55,0,0,1,80.06,9.92c0-.29,0-.43-.09-.51C76.14,3.64,72.29-2.11,68.48-7.88Zm9.41-9.51c-.51-.77-1-.71-1.62-.17a40.53,40.53,0,0,0-6.45,6.83,1.69,1.69,0,0,0,0,2.26C71.66-5.77,73.45-3,75.27-.3L80.83,8c.36.55.69,1.1,1.28.24A38.06,38.06,0,0,1,89,1.1a1,1,0,0,0,.21-1.52Q83.54-8.9,77.89-17.39Z"/><path class="b" d="M51.51,15.7c2,3,4,6.08,6.08,9.08.61.89.58,1.39-.36,2A41.85,41.85,0,0,0,46.61,37.1a2.05,2.05,0,0,1-1.3.89,42,42,0,0,0-13.58,5.84c-.92.6-1.41.55-2-.39-4-6.08-8.08-12.13-12.11-18.2-.3-.45-1-1-.26-1.55s1.14.3,1.47.78C22.53,30,26.25,35.56,29.91,41.15c.71,1.07,1.19,1.28,2.42.6a44.21,44.21,0,0,1,12-5,2.19,2.19,0,0,0,1.46-1A42.6,42.6,0,0,1,55,26.62c1.26-1,1-1.57.3-2.61-3.57-5.28-7.09-10.6-10.63-15.9L44,7.05c-.28-.44-.5-.87.1-1.24s.88.09,1.15.5c1.19,1.76,2.36,3.53,3.55,5.3Z"/><path class="b" d="M53,26.16a28.25,28.25,0,0,0-7.82,8.22,2.46,2.46,0,0,1-1.86,1.25,28.94,28.94,0,0,0-10.75,4.15c-1.05.65-1.52.45-2.15-.5Q24.25,29.92,18,20.64c-.66-1-.59-1.52.43-2.15a33.78,33.78,0,0,1,10.75-4.22,2.54,2.54,0,0,0,1.71-1.13,33.68,33.68,0,0,1,8-8.32c1-.68,1.51-.61,2.16.41,2,3.17,4.16,6.27,6.25,9.41s4,6.08,6.09,9.07C54.12,24.76,54.17,25.32,53,26.16ZM31,16.42a1.49,1.49,0,0,0-1.84-.67,39.24,39.24,0,0,0-9,3.38c-.77.38-.86.87-.37,1.59q5.69,8.48,11.33,17c.35.53.7.74,1.34.4a39.55,39.55,0,0,1,10.08-3.86c-.05-.29,0-.43-.09-.52C38.64,27.94,34.79,22.19,31,16.42Zm9.41-9.51c-.51-.78-1-.71-1.62-.18a40.6,40.6,0,0,0-6.45,6.84,1.69,1.69,0,0,0,0,2.26C34.16,18.52,36,21.27,37.77,24s3.71,5.55,5.56,8.34c.36.54.69,1.1,1.28.23A38.31,38.31,0,0,1,51.5,25.4a1,1,0,0,0,.21-1.53Q46,15.41,40.39,6.91Z"/><path class="b" d="M14-8.6c2,3,4,6.08,6.08,9.08.61.89.58,1.39-.36,2A41.72,41.72,0,0,0,9.11,12.81a2.08,2.08,0,0,1-1.3.88A42,42,0,0,0-5.77,19.53c-.92.6-1.41.55-2-.39C-11.81,13.06-15.88,7-19.91.94c-.3-.45-1-1-.26-1.54S-19-.31-18.7.18C-15,5.72-11.25,11.26-7.59,16.85c.71,1.07,1.19,1.29,2.42.6a43.87,43.87,0,0,1,12-5,2.24,2.24,0,0,0,1.46-1,42.6,42.6,0,0,1,9.24-9.14c1.26-1,1-1.57.3-2.61-3.57-5.28-7.09-10.6-10.63-15.9-.24-.35-.48-.7-.71-1.06s-.5-.87.1-1.23.88.09,1.15.49c1.19,1.76,2.36,3.53,3.55,5.3Z"/><path class="b" d="M15.5,1.86a28.25,28.25,0,0,0-7.82,8.22,2.44,2.44,0,0,1-1.86,1.25A28.94,28.94,0,0,0-4.93,15.48c-1.05.65-1.52.45-2.15-.5Q-13.24,5.62-19.52-3.66c-.66-1-.59-1.52.43-2.15A33.78,33.78,0,0,1-8.34-10a2.5,2.5,0,0,0,1.71-1.13,33.47,33.47,0,0,1,8-8.31c1-.69,1.51-.62,2.16.4,2,3.17,4.16,6.28,6.25,9.41s4,6.09,6.09,9.07C16.62.47,16.67,1,15.5,1.86Zm-22-9.74a1.49,1.49,0,0,0-1.84-.67,39.72,39.72,0,0,0-9,3.38c-.77.38-.86.87-.37,1.6q5.69,8.46,11.33,17c.35.53.7.74,1.34.4A39.55,39.55,0,0,1,5.06,9.92c0-.29,0-.43-.09-.51C1.14,3.64-2.71-2.11-6.52-7.88Zm9.41-9.51c-.51-.77-1-.71-1.62-.17a40.53,40.53,0,0,0-6.45,6.83,1.69,1.69,0,0,0,0,2.26C-3.34-5.77-1.55-3,.27-.3L5.83,8c.36.55.69,1.1,1.28.24A38.06,38.06,0,0,1,14,1.1a1,1,0,0,0,.21-1.52Q8.54-8.9,2.89-17.39Z"/></pattern><radialGradient id="b" cx="960" cy="540" r="778.85" gradientUnits="userSpaceOnUse"><stop offset="0" stop-color="#fff" stop-opacity="0"/><stop offset="0.14" stop-color="#f9f9fa" stop-opacity="0.02"/><stop offset="0.29" stop-color="#e8e9e9" stop-opacity="0.08"/><stop offset="0.45" stop-color="#cccdcf" stop-opacity="0.19"/><stop offset="0.46" stop-color="#c9cacc" stop-opacity="0.2"/><stop offset="0.64" stop-color="#9a9b9c" stop-opacity="0.2"/><stop offset="0.94" stop-color="#1b1c1c" stop-opacity="0.2"/><stop offset="1" stop-opacity="0.2"/></radialGradient></defs><rect class="c" width="1920" height="1080"/><rect class="d" width="1920" height="1080"/></svg>