<svg xmlns="http://www.w3.org/2000/svg" xmlns:xlink="http://www.w3.org/1999/xlink" viewBox="0 0 501 341"><defs><style>.a{fill:none;}.b{fill:#cbcbcb;}.c{fill:url(#a);}</style><pattern id="a" width="50" height="48.6" patternUnits="userSpaceOnUse" viewBox="0 0 50 48.6"><rect class="a" width="50" height="48.6"/><path class="b" d="M39,15.7c2,3,4,6.08,6.08,9.08.61.89.58,1.39-.36,2A41.85,41.85,0,0,0,34.11,37.1a2.05,2.05,0,0,1-1.3.89,42,42,0,0,0-13.58,5.84c-.92.6-1.41.55-2-.39-4-6.08-8.08-12.13-12.11-18.2-.3-.45-1-1-.26-1.55S6,24,6.3,24.47C10,30,13.75,35.56,17.41,41.15c.71,1.07,1.19,1.28,2.42.6a44.21,44.21,0,0,1,12-5,2.19,2.19,0,0,0,1.46-1,42.6,42.6,0,0,1,9.24-9.14c1.26-1,1-1.57.3-2.61-3.57-5.28-7.09-10.6-10.63-15.9l-.71-1.06c-.27-.44-.5-.87.1-1.24s.88.09,1.15.5c1.19,1.76,2.36,3.53,3.55,5.3Z"/><path class="b" d="M40.5,26.16a28.25,28.25,0,0,0-7.82,8.22,2.46,2.46,0,0,1-1.86,1.25,28.94,28.94,0,0,0-10.75,4.15c-1.05.65-1.52.45-2.15-.5Q11.76,29.92,5.48,20.64c-.66-1-.59-1.52.43-2.15a33.78,33.78,0,0,1,10.75-4.22,2.54,2.54,0,0,0,1.71-1.13,33.68,33.68,0,0,1,8-8.32c1-.68,1.51-.61,2.16.41,2,3.17,4.16,6.27,6.25,9.41s4,6.08,6.09,9.07C41.62,24.76,41.67,25.32,40.5,26.16Zm-22-9.74a1.49,1.49,0,0,0-1.84-.67,39.24,39.24,0,0,0-9,3.38c-.77.38-.86.87-.37,1.59q5.69,8.48,11.33,17c.35.53.7.74,1.34.4a39.55,39.55,0,0,1,10.08-3.86c0-.29,0-.43-.09-.52C26.14,27.94,22.29,22.19,18.48,16.42Zm9.41-9.51c-.51-.78-1-.71-1.62-.18a40.6,40.6,0,0,0-6.45,6.84,1.69,1.69,0,0,0,0,2.26c1.86,2.69,3.65,5.44,5.47,8.16s3.71,5.55,5.56,8.34c.36.54.69,1.1,1.28.23A38.31,38.31,0,0,1,39,25.4a1,1,0,0,0,.21-1.53Q33.54,15.41,27.89,6.91Z"/></pattern></defs><rect class="c" width="501" height="341"/></svg>