<svg width="656" height="168" viewBox="0 0 656 168" fill="none" xmlns="http://www.w3.org/2000/svg">
<g clip-path="url(#clip0_4:12)">
<path d="M158.262 105.572C156.402 102.287 154.472 104.265 152.928 104.901C122.188 117.548 91.4709 130.278 60.7775 143.089C59.9212 143.533 58.953 143.709 57.9967 143.596C57.0403 143.483 56.1392 143.085 55.4085 142.454C38.9155 130.513 22.4225 118.608 5.68382 107.127C4.18294 106.275 3.04591 104.896 2.48937 103.255C1.93284 101.613 1.99569 99.8224 2.66595 98.2243C3.78888 98.9309 4.77144 99.4608 5.64873 100.097C22.3172 112.002 39.0208 123.872 55.6191 135.883C56.4738 136.625 57.5331 137.087 58.6556 137.207C59.778 137.327 60.9101 137.099 61.9005 136.554C93.553 123.342 125.229 110.177 156.928 97.0585C158.326 96.3694 159.685 95.6028 160.999 94.7623L143.769 87.6969C143.032 90.3111 144.576 92.9959 140.751 93.9144C107.742 102.11 74.744 110.436 41.7579 118.891C40.7954 119.24 39.7446 119.255 38.7722 118.935C37.7997 118.615 36.961 117.978 36.3889 117.124C27.8266 107.339 19.2993 97.4824 10.5265 88.1208C7.54367 84.9061 7.78931 81.656 8.14023 77.5228C17.9308 87.7322 27.3704 97.4825 36.7749 107.303C37.2561 107.932 37.9232 108.391 38.6801 108.613C39.437 108.835 40.2444 108.81 40.9859 108.54C59.409 103.947 77.8671 99.3194 96.3955 95.1155C110.818 91.8655 125.381 89.1806 139.909 86.3192C143.804 85.542 147.769 84.9767 151.735 84.3409V82.9984C150.216 82.5617 148.647 82.3242 147.068 82.2919C137.102 83.4577 127.171 84.8354 117.205 86.1072L77.2004 90.947C77.8132 90.1173 78.6378 89.4703 79.5866 89.0747C85.1662 86.3898 90.7106 83.6697 96.3604 81.1261C98.268 80.2559 100.288 79.6613 102.361 79.3598C116.398 77.5228 130.434 75.8271 144.471 74.0608C146.997 73.7428 149.489 73.2129 152.858 72.6477L140.12 61.4137L151.173 55.8674C149.033 53.4652 147.138 54.3837 145.208 55.2669C121.463 66.1946 97.6938 77.146 73.9018 88.1208C72.4106 88.8948 70.6976 89.1197 69.0592 88.7567C51.5134 81.9033 34.1431 74.9086 16.7026 67.8432C16.255 67.6619 15.8547 67.3797 15.5323 67.0184C15.2099 66.6571 14.974 66.2263 14.8427 65.7589C14.4216 60.5659 14.2813 55.5495 14.0356 50.0385C15.9656 50.745 17.5448 51.2396 18.9835 51.8402C34.88 57.987 50.7414 64.1692 66.6378 70.2101C68.1006 70.7416 69.7019 70.7416 71.1646 70.2101C96.2434 59.5885 121.369 48.8845 146.541 38.098C147.84 37.5328 148.998 36.7203 150.647 35.8018C149.454 35.2719 148.927 34.9539 148.366 34.7773C131.838 30.2908 115.31 25.7336 98.7466 21.3531C96.8739 20.8412 94.8994 20.8412 93.0267 21.3531C67.9713 29.5136 42.951 37.8154 17.9308 46.0819C10.9125 48.3428 10.4563 49.332 10.9125 56.6799C10.9125 57.2452 10.9125 57.8457 10.9125 58.4463C11.1932 63.8513 12.281 68.7264 18.4571 70.3514C18.8432 70.3514 19.159 70.8813 19.9661 71.5172C16.4569 72.2591 13.1934 73.1776 10.0001 73.4955C6.80675 73.8135 5.22763 75.7211 5.12236 79.1831C4.9842 81.5433 5.40165 83.9029 6.34074 86.0699C7.27982 88.2369 8.71398 90.1501 10.5265 91.6535C8.2806 92.4307 6.63129 92.9606 5.01708 93.5965C3.40287 94.2324 0.17445 94.2324 0.209541 97.3765C0.244633 100.521 -1.12394 104.654 2.59577 107.409C20.2351 120.457 37.8394 133.645 55.4085 146.975C56.0466 147.548 56.8476 147.904 57.6979 147.993C58.5482 148.082 59.4047 147.899 60.1459 147.47C80.0779 138.897 100.033 130.372 120.012 121.893L158.262 105.572Z" fill="url(#paint0_linear_4:12)"/>
</g>
<g filter="url(#filter0_d_4:12)">
<path d="M287.609 83.0781C287.578 83.2031 287.359 83.7344 286.953 84.6719C286.547 85.6094 285.859 86.7656 284.891 88.1406C283.953 89.5156 282.703 91.0312 281.141 92.6875C279.578 94.3438 277.609 95.9688 275.234 97.5625C272.859 99.125 270.047 100.562 266.797 101.875C263.547 103.156 259.781 104.141 255.5 104.828C252.625 105.297 249.609 105.531 246.453 105.531C243.828 105.531 241.188 105.344 238.531 104.969C235.906 104.625 233.375 104.062 230.938 103.281C228.531 102.531 226.281 101.562 224.188 100.375C222.094 99.1875 220.266 97.7812 218.703 96.1562C217.172 94.5312 215.953 92.6719 215.047 90.5781C214.172 88.4531 213.734 86.0938 213.734 83.5C213.734 78.9062 215 74.9531 217.531 71.6406C220.094 68.3281 223.875 65.75 228.875 63.9062C227.094 62.25 225.766 60.4219 224.891 58.4219C224.016 56.4219 223.578 54.3438 223.578 52.1875C223.578 49.5 224.188 47.0156 225.406 44.7344C226.656 42.4531 228.375 40.4844 230.562 38.8281C232.75 37.1719 235.344 35.8906 238.344 34.9844C241.375 34.0469 244.688 33.5781 248.281 33.5781C251.906 33.5781 255.062 33.9219 257.75 34.6094C260.469 35.2969 262.781 36.1562 264.688 37.1875C266.625 38.2188 268.203 39.3438 269.422 40.5625C270.672 41.7812 271.656 42.9219 272.375 43.9844C273.094 45.0469 273.594 45.9531 273.875 46.7031C274.156 47.4219 274.312 47.8281 274.344 47.9219C274.375 48.0469 274.391 48.2188 274.391 48.4375C274.391 48.875 274.219 49.2812 273.875 49.6562C273.562 50 273.141 50.1719 272.609 50.1719C272.234 50.1719 271.891 50.0625 271.578 49.8438C271.297 49.5938 271.094 49.2656 270.969 48.8594C270.969 48.7969 270.844 48.4688 270.594 47.875C270.344 47.25 269.906 46.5 269.281 45.625C268.656 44.75 267.797 43.8281 266.703 42.8594C265.641 41.8594 264.266 40.9375 262.578 40.0938C260.891 39.2188 258.875 38.5 256.531 37.9375C254.188 37.375 251.438 37.0938 248.281 37.0938C244.656 37.0938 241.5 37.5469 238.812 38.4531C236.156 39.3594 233.953 40.5469 232.203 42.0156C230.484 43.4531 229.203 45.0625 228.359 46.8438C227.516 48.625 227.094 50.375 227.094 52.0938C227.094 54.125 227.594 56.0625 228.594 57.9062C229.594 59.75 231.031 61.3281 232.906 62.6406C234.594 62.2031 236.25 61.8594 237.875 61.6094C239.5 61.3594 241.031 61.1719 242.469 61.0469C243.906 60.8906 245.203 60.7969 246.359 60.7656C247.547 60.7031 248.516 60.6719 249.266 60.6719C250.641 60.6719 251.906 60.7812 253.062 61C254.219 61.1875 255.203 61.4844 256.016 61.8906C256.859 62.2656 257.516 62.7656 257.984 63.3906C258.453 63.9844 258.688 64.6719 258.688 65.4531C258.688 66.2344 258.453 66.9375 257.984 67.5625C257.516 68.1875 256.859 68.7188 256.016 69.1562C255.203 69.5938 254.219 69.9375 253.062 70.1875C251.906 70.4062 250.641 70.5156 249.266 70.5156C247.766 70.5156 246.25 70.4219 244.719 70.2344C243.188 70.0469 241.688 69.7812 240.219 69.4375C238.781 69.0938 237.391 68.6719 236.047 68.1719C234.703 67.6406 233.484 67.0469 232.391 66.3906C227.422 67.8906 223.656 70.0625 221.094 72.9062C218.531 75.7188 217.25 79.2031 217.25 83.3594C217.25 85.6094 217.641 87.6406 218.422 89.4531C219.234 91.2344 220.344 92.8125 221.75 94.1875C223.156 95.5625 224.797 96.75 226.672 97.75C228.578 98.7188 230.609 99.5156 232.766 100.141C234.922 100.766 237.172 101.234 239.516 101.547C241.859 101.828 244.188 101.969 246.5 101.969C248 101.969 249.453 101.922 250.859 101.828C252.266 101.703 253.625 101.531 254.938 101.312C258.875 100.688 262.328 99.7812 265.297 98.5938C268.297 97.375 270.875 96.0625 273.031 94.6562C275.219 93.2188 277.031 91.7656 278.469 90.2969C279.906 88.7969 281.047 87.4375 281.891 86.2188C282.766 84.9688 283.375 83.9531 283.719 83.1719C284.094 82.3906 284.281 81.9844 284.281 81.9531C284.406 81.5781 284.609 81.2969 284.891 81.1094C285.203 80.8906 285.547 80.7812 285.922 80.7812C286.422 80.7812 286.844 80.9531 287.188 81.2969C287.531 81.6406 287.703 82.0469 287.703 82.5156C287.703 82.6406 287.672 82.8281 287.609 83.0781ZM255.125 65.5C255.125 65.25 254.922 65.0312 254.516 64.8438C254.109 64.6562 253.578 64.5156 252.922 64.4219C252.297 64.2969 251.578 64.2188 250.766 64.1875C249.953 64.125 249.125 64.0938 248.281 64.0938C246.438 64.0938 244.688 64.1562 243.031 64.2812C241.375 64.375 239.484 64.625 237.359 65.0312C238.984 65.625 240.844 66.1094 242.938 66.4844C245.062 66.8281 247.203 67 249.359 67C251.328 67 252.781 66.8438 253.719 66.5312C254.656 66.2188 255.125 65.875 255.125 65.5ZM321.453 86.5938C321.453 87.0938 321.297 87.5312 320.984 87.9062C320.703 88.25 320.297 88.4375 319.766 88.4688L303.641 89.3125C303.172 89.3438 302.734 89.2188 302.328 88.9375C301.953 88.625 301.766 88.2031 301.766 87.6719C301.766 87.1719 301.906 86.75 302.188 86.4062C302.5 86.0312 302.922 85.8281 303.453 85.7969L319.578 84.9531C320.078 84.9219 320.5 85.0625 320.844 85.375C321.219 85.6875 321.422 86.0938 321.453 86.5938ZM413.328 95.3594C413.297 95.4219 413.109 95.6875 412.766 96.1562C412.422 96.625 411.922 97.2031 411.266 97.8906C410.641 98.5469 409.844 99.2656 408.875 100.047C407.938 100.797 406.812 101.5 405.5 102.156C404.219 102.781 402.766 103.312 401.141 103.75C399.516 104.188 397.719 104.406 395.75 104.406C392.688 104.406 389.812 104.016 387.125 103.234C384.438 102.484 381.844 101.516 379.344 100.328C376.875 99.1406 374.438 97.8281 372.031 96.3906C369.625 94.9531 367.172 93.5469 364.672 92.1719C363.141 94.7344 361.375 96.8281 359.375 98.4531C357.406 100.047 355.344 101.297 353.188 102.203C351.062 103.109 348.938 103.719 346.812 104.031C344.719 104.375 342.781 104.547 341 104.547C339.281 104.547 337.531 104.359 335.75 103.984C334 103.641 332.406 103.062 330.969 102.25C329.562 101.406 328.406 100.312 327.5 98.9688C326.594 97.625 326.141 95.9531 326.141 93.9531C326.141 92.0781 326.578 90.3906 327.453 88.8906C328.297 87.3594 329.469 86.0625 330.969 85C332.5 83.9375 334.297 83.125 336.359 82.5625C338.422 81.9688 340.641 81.6719 343.016 81.6719C344.797 81.6719 346.562 81.8281 348.312 82.1406C350.094 82.4531 351.828 82.875 353.516 83.4062C355.203 83.9375 356.844 84.5469 358.438 85.2344C360.031 85.8906 361.531 86.5625 362.938 87.25C363.125 86.6875 363.281 86.125 363.406 85.5625C363.562 85 363.688 84.3906 363.781 83.7344C363.906 83.0469 363.984 82.2969 364.016 81.4844C364.078 80.6406 364.109 79.6719 364.109 78.5781C364.109 77.5469 364.078 76.5625 364.016 75.625C363.984 74.6875 363.938 73.6719 363.875 72.5781C363.844 71.4531 363.797 70.2031 363.734 68.8281C363.703 67.4219 363.688 65.75 363.688 63.8125C363.688 59.3438 364.125 55.2812 365 51.625C365.875 47.9375 367.172 44.7812 368.891 42.1562C370.609 39.5312 372.75 37.5 375.312 36.0625C377.875 34.5938 380.859 33.8594 384.266 33.8594C386.328 33.8594 388.281 34.1875 390.125 34.8438C392 35.5 393.641 36.4375 395.047 37.6562C396.484 38.875 397.609 40.3281 398.422 42.0156C399.266 43.7031 399.688 45.5781 399.688 47.6406C399.688 48.7656 399.531 49.9375 399.219 51.1562C398.906 52.375 398.469 53.5 397.906 54.5312C397.375 55.5312 396.75 56.3594 396.031 57.0156C395.344 57.6719 394.609 58 393.828 58C393.391 58 393 57.875 392.656 57.625C392.312 57.375 392.141 56.9844 392.141 56.4531C392.141 56.0781 392.219 55.7656 392.375 55.5156C392.562 55.2344 392.781 54.9844 393.031 54.7656C393.938 53.9531 394.672 52.9531 395.234 51.7656C395.828 50.5781 396.125 49.2031 396.125 47.6406C396.125 46.0781 395.797 44.6719 395.141 43.4219C394.516 42.1406 393.656 41.0625 392.562 40.1875C391.5 39.2812 390.25 38.5938 388.812 38.125C387.406 37.625 385.922 37.375 384.359 37.375C381.422 37.375 378.875 38.0156 376.719 39.2969C374.562 40.5781 372.781 42.3906 371.375 44.7344C369.969 47.0469 368.922 49.8594 368.234 53.1719C367.578 56.4531 367.25 60.1094 367.25 64.1406C367.25 66.0781 367.266 67.7812 367.297 69.25C367.359 70.7188 367.406 72.0625 367.438 73.2812C367.5 74.5 367.547 75.6562 367.578 76.75C367.641 77.8125 367.672 78.9062 367.672 80.0312C367.672 80.6875 367.641 81.4062 367.578 82.1875C367.516 82.9375 367.422 83.7188 367.297 84.5312C367.172 85.3125 367 86.0938 366.781 86.875C366.594 87.625 366.375 88.3125 366.125 88.9375C368.5 90.1875 370.844 91.5156 373.156 92.9219C375.469 94.3281 377.812 95.625 380.188 96.8125C382.594 97.9688 385.062 98.9375 387.594 99.7188C390.156 100.469 392.859 100.844 395.703 100.844C398.203 100.844 400.359 100.469 402.172 99.7188C404.016 98.9688 405.531 98.1406 406.719 97.2344C407.938 96.2969 408.844 95.4531 409.438 94.7031C410.031 93.9219 410.328 93.5156 410.328 93.4844C410.672 92.9219 411.172 92.6406 411.828 92.6406C412.359 92.6406 412.781 92.8281 413.094 93.2031C413.438 93.5781 413.609 93.9844 413.609 94.4219C413.609 94.7656 413.516 95.0781 413.328 95.3594ZM361.578 90.4375C360.234 89.7812 358.812 89.1406 357.312 88.5156C355.844 87.8594 354.328 87.2812 352.766 86.7812C351.203 86.2812 349.594 85.8906 347.938 85.6094C346.312 85.2969 344.688 85.1406 343.062 85.1406C341.219 85.1406 339.484 85.3438 337.859 85.75C336.234 86.125 334.812 86.6875 333.594 87.4375C332.375 88.1875 331.406 89.0938 330.688 90.1562C330 91.2188 329.656 92.4219 329.656 93.7656C329.656 95.0156 329.969 96.1094 330.594 97.0469C331.219 97.9531 332.047 98.7188 333.078 99.3438C334.141 99.9375 335.359 100.391 336.734 100.703C338.109 100.984 339.547 101.125 341.047 101.125C342.859 101.125 344.734 100.984 346.672 100.703C348.609 100.391 350.484 99.8438 352.297 99.0625C354.109 98.25 355.812 97.1562 357.406 95.7812C359 94.375 360.391 92.5938 361.578 90.4375ZM424.906 66.2031C424.906 67.3906 424.484 68.4062 423.641 69.25C422.828 70.0625 421.828 70.4688 420.641 70.4688C419.453 70.4688 418.438 70.0625 417.594 69.25C416.781 68.4062 416.375 67.3906 416.375 66.2031C416.375 65.6094 416.484 65.0625 416.703 64.5625C416.922 64.0312 417.219 63.5781 417.594 63.2031C418 62.7969 418.453 62.4844 418.953 62.2656C419.484 62.0469 420.047 61.9375 420.641 61.9375C421.234 61.9375 421.781 62.0469 422.281 62.2656C422.812 62.4844 423.266 62.7969 423.641 63.2031C424.047 63.5781 424.359 64.0312 424.578 64.5625C424.797 65.0625 424.906 65.6094 424.906 66.2031ZM417.312 93.6719C417.312 89.1719 417.594 84.6875 418.156 80.2188C418.219 79.7812 418.406 79.4062 418.719 79.0938C419.062 78.75 419.5 78.5781 420.031 78.5781C420.5 78.5781 420.891 78.7656 421.203 79.1406C421.516 79.4844 421.672 79.8906 421.672 80.3594C421.672 80.5469 421.625 81.1094 421.531 82.0469C421.469 82.9844 421.375 84.1094 421.25 85.4219C421.156 86.7031 421.062 88.0781 420.969 89.5469C420.906 90.9844 420.875 92.3125 420.875 93.5312C420.875 95.1875 421.031 96.5312 421.344 97.5625C421.688 98.5625 422.109 99.3438 422.609 99.9062C423.141 100.469 423.688 100.844 424.25 101.031C424.844 101.219 425.406 101.312 425.938 101.312C426.812 101.312 427.719 101 428.656 100.375C429.594 99.75 430.547 98.875 431.516 97.75C432.516 96.625 433.516 95.2812 434.516 93.7188C435.516 92.125 436.5 90.3594 437.469 88.4219C437.625 88.1094 437.844 87.875 438.125 87.7188C438.406 87.5312 438.719 87.4375 439.062 87.4375C439.562 87.4375 439.969 87.625 440.281 88C440.625 88.375 440.797 88.7812 440.797 89.2188C440.797 89.5312 440.734 89.7969 440.609 90.0156C440.234 90.7344 439.766 91.6094 439.203 92.6406C438.641 93.6719 438 94.7344 437.281 95.8281C436.562 96.9219 435.766 98.0156 434.891 99.1094C434.047 100.172 433.141 101.141 432.172 102.016C431.203 102.859 430.188 103.547 429.125 104.078C428.062 104.609 426.984 104.875 425.891 104.875C424.484 104.875 423.25 104.578 422.188 103.984C421.125 103.391 420.219 102.594 419.469 101.594C418.75 100.594 418.203 99.4219 417.828 98.0781C417.484 96.7031 417.312 95.2344 417.312 93.6719ZM422.281 66.2031C422.281 65.7656 422.109 65.3906 421.766 65.0781C421.453 64.7344 421.078 64.5625 420.641 64.5625C420.203 64.5625 419.828 64.7344 419.516 65.0781C419.203 65.3906 419.047 65.7656 419.047 66.2031C419.047 66.6406 419.203 67.0156 419.516 67.3281C419.828 67.6406 420.203 67.7969 420.641 67.7969C421.078 67.7969 421.453 67.6406 421.766 67.3281C422.109 67.0156 422.281 66.6406 422.281 66.2031ZM476.938 90.0156C476.844 90.2031 476.641 90.5938 476.328 91.1875C476.016 91.75 475.609 92.4219 475.109 93.2031C474.609 93.9531 474.016 94.7656 473.328 95.6406C472.641 96.4844 471.891 97.2656 471.078 97.9844C470.266 98.7031 469.391 99.2969 468.453 99.7656C467.516 100.234 466.547 100.469 465.547 100.469C463.922 100.469 462.547 100.188 461.422 99.625C460.297 99.0312 459.375 98.375 458.656 97.6562C458.156 98.75 457.547 99.75 456.828 100.656C456.109 101.562 455.312 102.344 454.438 103C453.562 103.688 452.625 104.219 451.625 104.594C450.656 104.969 449.656 105.156 448.625 105.156C446.719 105.156 445.094 104.594 443.75 103.469C442.406 102.344 441.281 100.844 440.375 98.9688C439.5 97.0625 438.812 94.8594 438.312 92.3594C437.812 89.8594 437.422 87.2344 437.141 84.4844C436.891 81.7344 436.734 78.9531 436.672 76.1406C436.609 73.3281 436.578 70.6562 436.578 68.125C436.578 63.2812 436.719 59.0938 437 55.5625C437.281 52 437.656 48.9844 438.125 46.5156C438.625 44.0156 439.188 42 439.812 40.4688C440.469 38.9062 441.156 37.7031 441.875 36.8594C442.594 35.9844 443.328 35.3906 444.078 35.0781C444.828 34.7656 445.562 34.6094 446.281 34.6094C447.438 34.6094 448.453 34.9531 449.328 35.6406C450.234 36.3281 450.984 37.2969 451.578 38.5469C452.203 39.7656 452.672 41.25 452.984 43C453.297 44.75 453.453 46.6719 453.453 48.7656C453.453 52.1094 453.094 55.5625 452.375 59.125C451.656 62.6875 450.719 66.25 449.562 69.8125C448.438 73.3438 447.172 76.8281 445.766 80.2656C444.359 83.6719 442.969 86.9062 441.594 89.9688C441.781 91.5 442.062 92.9688 442.438 94.375C442.812 95.75 443.297 96.9844 443.891 98.0781C444.484 99.1406 445.188 100 446 100.656C446.812 101.281 447.75 101.594 448.812 101.594C449.875 101.594 450.875 101.297 451.812 100.703C452.75 100.078 453.562 99.2812 454.25 98.3125C454.938 97.3125 455.469 96.1875 455.844 94.9375C456.25 93.6875 456.453 92.4062 456.453 91.0938C456.453 90.2188 456.359 89.3438 456.172 88.4688C456.016 87.5625 455.75 86.7656 455.375 86.0781C455.031 85.3594 454.594 84.7812 454.062 84.3438C453.531 83.9062 452.891 83.6875 452.141 83.6875C451.578 83.6875 451.141 83.8125 450.828 84.0625C450.516 84.2812 450.281 84.5469 450.125 84.8594C449.969 85.1406 449.875 85.4219 449.844 85.7031C449.812 85.9844 449.797 86.1719 449.797 86.2656C449.797 86.7031 449.891 87.1406 450.078 87.5781C450.266 88.0156 450.625 88.4062 451.156 88.75C451.688 89.125 451.953 89.6406 451.953 90.2969C451.953 90.8281 451.766 91.25 451.391 91.5625C451.047 91.875 450.656 92.0312 450.219 92.0312C449.594 92.0312 449.031 91.8438 448.531 91.4688C448.062 91.0938 447.656 90.625 447.312 90.0625C446.969 89.4688 446.703 88.8438 446.516 88.1875C446.328 87.5312 446.234 86.9219 446.234 86.3594C446.234 85.4531 446.391 84.625 446.703 83.875C447.016 83.0938 447.438 82.4375 447.969 81.9062C448.531 81.3438 449.156 80.9219 449.844 80.6406C450.562 80.3281 451.312 80.1719 452.094 80.1719C453.438 80.1719 454.594 80.4844 455.562 81.1094C456.562 81.7344 457.391 82.5625 458.047 83.5938C458.703 84.625 459.188 85.7969 459.5 87.1094C459.812 88.4219 459.969 89.75 459.969 91.0938C459.969 91.875 459.922 92.6406 459.828 93.3906C459.953 93.6406 460.156 93.9688 460.438 94.375C460.719 94.7812 461.094 95.1719 461.562 95.5469C462.031 95.9219 462.594 96.25 463.25 96.5312C463.906 96.8125 464.672 96.9531 465.547 96.9531C466.297 96.9531 467.062 96.6719 467.844 96.1094C468.656 95.5156 469.422 94.7969 470.141 93.9531C470.891 93.0781 471.578 92.1562 472.203 91.1875C472.828 90.1875 473.344 89.2656 473.75 88.4219C473.906 88.1094 474.125 87.875 474.406 87.7188C474.688 87.5312 475 87.4375 475.344 87.4375C475.875 87.4375 476.297 87.625 476.609 88C476.953 88.375 477.125 88.7969 477.125 89.2656C477.125 89.4531 477.062 89.7031 476.938 90.0156ZM440.703 83.9688C441.766 81.3438 442.844 78.5938 443.938 75.7188C445.031 72.8125 446.016 69.8594 446.891 66.8594C447.766 63.8594 448.484 60.8281 449.047 57.7656C449.609 54.7031 449.891 51.6875 449.891 48.7188C449.891 47.5938 449.828 46.4219 449.703 45.2031C449.609 43.9531 449.422 42.8125 449.141 41.7812C448.859 40.75 448.469 39.8906 447.969 39.2031C447.5 38.5156 446.891 38.1719 446.141 38.1719C445.891 38.1719 445.562 38.3438 445.156 38.6875C444.781 39 444.375 39.5781 443.938 40.4219C443.5 41.2344 443.062 42.375 442.625 43.8438C442.188 45.3125 441.781 47.1875 441.406 49.4688C441.062 51.7188 440.766 54.4375 440.516 57.625C440.297 60.8125 440.188 64.5625 440.188 68.875C440.188 70.3125 440.203 71.7812 440.234 73.2812C440.266 74.75 440.297 76.1562 440.328 77.5C440.391 78.8438 440.453 80.0781 440.516 81.2031C440.578 82.3281 440.641 83.25 440.703 83.9688ZM478.719 83.7344C478.594 84.5781 478.438 85.375 478.25 86.125C478.062 86.8438 477.875 87.4844 477.688 88.0469C477.531 88.5781 477.391 89.0156 477.266 89.3594C477.141 89.7031 477.062 89.8906 477.031 89.9219C476.719 90.6406 476.172 91 475.391 91C474.953 91 474.547 90.8438 474.172 90.5312C473.797 90.1875 473.609 89.7656 473.609 89.2656C473.609 89.0781 473.641 88.9375 473.703 88.8438C473.766 88.75 473.859 88.5625 473.984 88.2812C474.109 88 474.266 87.5312 474.453 86.875C474.641 86.2188 474.875 85.2031 475.156 83.8281C474.625 83.8281 474.078 83.8125 473.516 83.7812C472.953 83.75 472.438 83.6406 471.969 83.4531C471.469 83.2656 471.062 82.9688 470.75 82.5625C470.438 82.1562 470.281 81.5938 470.281 80.875C470.281 80.3438 470.438 79.625 470.75 78.7188C471.031 77.8125 471.422 76.9219 471.922 76.0469C472.422 75.1719 472.984 74.4219 473.609 73.7969C474.234 73.1406 474.859 72.8125 475.484 72.8125C476.203 72.8125 476.781 73.0781 477.219 73.6094C477.688 74.1406 478.047 74.7969 478.297 75.5781C478.547 76.3281 478.719 77.125 478.812 77.9688C478.938 78.8125 479 79.5469 479 80.1719C479.531 80.1719 480.047 80.1719 480.547 80.1719C481.078 80.1406 481.578 80.125 482.047 80.125C483.828 80.125 485.188 80.5156 486.125 81.2969C487.062 82.0781 487.531 83.3594 487.531 85.1406C487.531 85.8594 487.484 86.6094 487.391 87.3906C487.297 88.1719 487.188 88.9844 487.062 89.8281C486.938 90.6406 486.828 91.4531 486.734 92.2656C486.641 93.0781 486.594 93.875 486.594 94.6562C486.594 95.7812 486.75 96.7188 487.062 97.4688C487.375 98.1875 487.766 98.7656 488.234 99.2031C488.703 99.6406 489.203 99.9531 489.734 100.141C490.266 100.297 490.75 100.375 491.188 100.375C492.531 100.375 493.797 99.9375 494.984 99.0625C496.172 98.1875 497.266 97.1406 498.266 95.9219C499.266 94.6719 500.156 93.3594 500.938 91.9844C501.75 90.6094 502.422 89.4062 502.953 88.375C503.109 88.0938 503.328 87.875 503.609 87.7188C503.891 87.5625 504.188 87.4844 504.5 87.4844C505.062 87.4844 505.5 87.6719 505.812 88.0469C506.125 88.3906 506.281 88.7812 506.281 89.2188C506.281 89.5312 506.219 89.8125 506.094 90.0625C505.375 91.3438 504.531 92.7969 503.562 94.4219C502.625 96.0156 501.547 97.5156 500.328 98.9219C499.109 100.328 497.734 101.516 496.203 102.484C494.703 103.453 493.047 103.938 491.234 103.938C490.109 103.938 489.047 103.719 488.047 103.281C487.047 102.875 486.172 102.281 485.422 101.5C484.703 100.688 484.125 99.7031 483.688 98.5469C483.25 97.3594 483.031 96.0312 483.031 94.5625C483.031 93 483.188 91.4531 483.5 89.9219C483.812 88.3594 483.969 86.875 483.969 85.4688C483.969 84.875 483.828 84.4375 483.547 84.1562C483.297 83.8438 482.719 83.6875 481.812 83.6875C481.375 83.6875 480.891 83.6875 480.359 83.6875C479.859 83.6875 479.312 83.7031 478.719 83.7344ZM475.578 80.2656C475.578 80.0469 475.562 79.7656 475.531 79.4219C475.531 79.0469 475.5 78.6875 475.438 78.3438C475.406 78 475.344 77.7031 475.25 77.4531C475.188 77.2031 475.109 77.0781 475.016 77.0781C474.922 77.0781 474.797 77.2031 474.641 77.4531C474.516 77.6719 474.375 77.9531 474.219 78.2969C474.062 78.6094 473.922 78.9531 473.797 79.3281C473.672 79.7031 473.578 80.0156 473.516 80.2656H475.578ZM524.562 97.8438C523.781 97.8438 523.094 97.7812 522.5 97.6562C522.031 98.5938 521.469 99.4688 520.812 100.281C520.156 101.062 519.391 101.75 518.516 102.344C517.672 102.938 516.719 103.406 515.656 103.75C514.594 104.094 513.438 104.266 512.188 104.266C510.719 104.266 509.375 104 508.156 103.469C506.938 102.969 505.875 102.266 504.969 101.359C504.062 100.422 503.359 99.3125 502.859 98.0312C502.359 96.7188 502.109 95.2812 502.109 93.7188C502.109 91.7188 502.469 89.9844 503.188 88.5156C503.906 87.0156 504.734 85.7812 505.672 84.8125C506.609 83.8125 507.547 83.0781 508.484 82.6094C509.422 82.1094 510.125 81.8594 510.594 81.8594C511.125 81.8594 511.516 82 511.766 82.2812C512.047 82.5625 512.188 82.9375 512.188 83.4062C512.188 83.9375 512.016 84.3438 511.672 84.625C511.359 84.875 510.953 85.125 510.453 85.375C509.953 85.625 509.422 85.9844 508.859 86.4531C508.297 86.8906 507.766 87.4531 507.266 88.1406C506.797 88.8281 506.406 89.6406 506.094 90.5781C505.781 91.5156 505.625 92.5625 505.625 93.7188C505.625 94.75 505.781 95.7188 506.094 96.625C506.406 97.5 506.859 98.2656 507.453 98.9219C508.047 99.5469 508.75 100.047 509.562 100.422C510.375 100.766 511.281 100.938 512.281 100.938C514.062 100.938 515.531 100.531 516.688 99.7188C517.875 98.875 518.781 97.8125 519.406 96.5312C517.562 95.5625 516.047 94.1875 514.859 92.4062C513.672 90.625 513.078 88.625 513.078 86.4062C513.078 84.625 513.5 83.1719 514.344 82.0469C515.219 80.9219 516.359 80.3594 517.766 80.3594C518.609 80.3594 519.406 80.5625 520.156 80.9688C520.906 81.375 521.562 82.0156 522.125 82.8906C522.719 83.7656 523.188 84.8906 523.531 86.2656C523.875 87.6406 524.047 89.2812 524.047 91.1875C524.047 92.1875 523.922 93.2344 523.672 94.3281C523.859 94.3594 524.047 94.375 524.234 94.375C524.422 94.375 524.625 94.375 524.844 94.375C525.906 94.375 526.859 94.25 527.703 94C528.547 93.75 529.312 93.375 530 92.875C530.688 92.375 531.297 91.7344 531.828 90.9531C532.391 90.1719 532.922 89.2656 533.422 88.2344C533.516 88.0469 533.719 87.875 534.031 87.7188C534.344 87.5312 534.656 87.4375 534.969 87.4375C535.375 87.4375 535.75 87.6094 536.094 87.9531C536.469 88.2656 536.656 88.6875 536.656 89.2188C536.656 89.4688 536.594 89.75 536.469 90.0625C536.344 90.3438 536.219 90.6094 536.094 90.8594C535.562 91.7969 534.938 92.7031 534.219 93.5781C533.531 94.4219 532.703 95.1719 531.734 95.8281C530.797 96.4531 529.734 96.9531 528.547 97.3281C527.359 97.7031 526.031 97.875 524.562 97.8438ZM516.547 86.0312C516.547 86.625 516.625 87.25 516.781 87.9062C516.938 88.5625 517.172 89.2188 517.484 89.875C517.828 90.5 518.234 91.1094 518.703 91.7031C519.203 92.2656 519.781 92.75 520.438 93.1562C520.531 92.5 520.578 91.8594 520.578 91.2344C520.578 90.3906 520.516 89.5312 520.391 88.6562C520.266 87.7812 520.078 86.9844 519.828 86.2656C519.609 85.5156 519.328 84.9219 518.984 84.4844C518.641 84.0156 518.234 83.7812 517.766 83.7812C517.578 83.7812 517.328 83.9219 517.016 84.2031C516.703 84.4844 516.547 85.0938 516.547 86.0312ZM571.297 56.0781C571.297 56.5781 571.125 56.9844 570.781 57.2969C570.438 57.5781 570.016 57.7188 569.516 57.7188H545.75V58.2344C545.75 60.1406 545.609 62.1719 545.328 64.3281C545.047 66.4844 544.656 68.6406 544.156 70.7969C543.688 72.9219 543.141 75 542.516 77.0312C541.922 79.0625 541.297 80.9375 540.641 82.6562C540.016 84.375 539.391 85.875 538.766 87.1562C538.141 88.4062 537.578 89.3438 537.078 89.9688C537.484 91.4062 537.969 92.75 538.531 94C539.094 95.2188 539.719 96.2969 540.406 97.2344C541.125 98.1406 541.891 98.8594 542.703 99.3906C543.516 99.9219 544.391 100.188 545.328 100.188C546.422 100.188 547.5 99.7344 548.562 98.8281C549.656 97.8906 550.656 96.7969 551.562 95.5469C552.5 94.2656 553.312 92.9844 554 91.7031C554.719 90.3906 555.234 89.3438 555.547 88.5625C555.859 87.8125 556.406 87.4375 557.188 87.4375C557.719 87.4375 558.141 87.625 558.453 88C558.797 88.375 558.969 88.7812 558.969 89.2188C558.969 89.4375 558.922 89.6562 558.828 89.875C558.734 90.0938 558.5 90.5938 558.125 91.375C557.781 92.1562 557.312 93.0625 556.719 94.0938C556.156 95.125 555.484 96.2188 554.703 97.375C553.953 98.5 553.094 99.5312 552.125 100.469C551.188 101.406 550.172 102.188 549.078 102.812C547.984 103.438 546.828 103.75 545.609 103.75C543.453 103.75 541.516 103.047 539.797 101.641C538.078 100.234 536.609 98.2656 535.391 95.7344C534.203 93.2031 533.297 90.2031 532.672 86.7344C532.047 83.2656 531.734 79.4688 531.734 75.3438C531.734 74.3125 531.75 73.1094 531.781 71.7344C531.812 70.3281 531.875 68.8594 531.969 67.3281C532.062 65.7656 532.203 64.1719 532.391 62.5469C532.578 60.8906 532.828 59.2812 533.141 57.7188H516.312C515.812 57.7188 515.391 57.5781 515.047 57.2969C514.703 56.9844 514.531 56.5781 514.531 56.0781C514.531 55.5781 514.703 55.1875 515.047 54.9062C515.391 54.5938 515.812 54.4375 516.312 54.4375H533.938C534.25 53.3125 534.609 52.2812 535.016 51.3438C535.453 50.4062 535.938 49.5938 536.469 48.9062C537.031 48.2188 537.641 47.6875 538.297 47.3125C538.984 46.9062 539.734 46.7031 540.547 46.7031C541.328 46.7031 542 46.9062 542.562 47.3125C543.156 47.6875 543.656 48.2188 544.062 48.9062C544.469 49.5938 544.781 50.4062 545 51.3438C545.25 52.2812 545.438 53.3125 545.562 54.4375H569.516C570.016 54.4375 570.438 54.5938 570.781 54.9062C571.125 55.1875 571.297 55.5781 571.297 56.0781ZM536 85.2812C536.938 83.2188 537.781 81 538.531 78.625C539.312 76.2188 539.969 73.7969 540.5 71.3594C541.062 68.9219 541.484 66.5312 541.766 64.1875C542.078 61.8438 542.234 59.6875 542.234 57.7188H536.703C536.266 59.6562 535.906 62.0625 535.625 64.9375C535.375 67.7812 535.25 71.25 535.25 75.3438C535.25 77.625 535.312 79.5469 535.438 81.1094C535.562 82.6406 535.75 84.0312 536 85.2812ZM540.359 50.2188C540.078 50.2188 539.672 50.5312 539.141 51.1562C538.609 51.75 538.078 52.8438 537.547 54.4375H542.047C541.891 53.125 541.656 52.0938 541.344 51.3438C541.062 50.5938 540.734 50.2188 540.359 50.2188ZM536.75 88.6562V88.7031V88.6562ZM561.359 97.8438C562.016 98.75 562.859 99.4844 563.891 100.047C564.922 100.578 566.188 100.844 567.688 100.844C569.219 100.844 570.609 100.484 571.859 99.7656C573.109 99.0156 574.25 98.0469 575.281 96.8594C576.312 95.6719 577.234 94.3438 578.047 92.875C578.859 91.4062 579.594 89.9375 580.25 88.4688C580.406 88.125 580.625 87.875 580.906 87.7188C581.188 87.5312 581.5 87.4375 581.844 87.4375C582.375 87.4375 582.797 87.625 583.109 88C583.453 88.375 583.625 88.7812 583.625 89.2188C583.625 89.375 583.609 89.5156 583.578 89.6406C583.547 89.7344 583.5 89.8438 583.438 89.9688C581.281 94.7188 578.922 98.2969 576.359 100.703C573.828 103.109 570.953 104.344 567.734 104.406C565.672 104.406 563.891 104 562.391 103.188C560.891 102.406 559.656 101.391 558.688 100.141C557.719 98.8594 557 97.4219 556.531 95.8281C556.062 94.2344 555.828 92.6406 555.828 91.0469C555.828 89.4531 556.016 87.9844 556.391 86.6406C556.797 85.2969 557.359 84.125 558.078 83.125C558.828 82.125 559.703 81.3438 560.703 80.7812C561.734 80.2188 562.859 79.9375 564.078 79.9375C564.797 79.9375 565.5 80.0938 566.188 80.4062C566.906 80.6875 567.547 81.1094 568.109 81.6719C568.672 82.2031 569.125 82.8594 569.469 83.6406C569.812 84.4219 569.984 85.3125 569.984 86.3125C569.984 87.5938 569.766 88.7969 569.328 89.9219C568.891 91.0469 568.281 92.0938 567.5 93.0625C566.75 94.0312 565.844 94.9219 564.781 95.7344C563.719 96.5469 562.578 97.25 561.359 97.8438ZM559.953 94.7969C560.922 94.3906 561.797 93.875 562.578 93.25C563.391 92.625 564.078 91.9375 564.641 91.1875C565.203 90.4375 565.641 89.6562 565.953 88.8438C566.266 88 566.422 87.1562 566.422 86.3125C566.422 85.375 566.188 84.6719 565.719 84.2031C565.25 83.7031 564.703 83.4531 564.078 83.4531C563.234 83.4531 562.516 83.6875 561.922 84.1562C561.328 84.625 560.844 85.2344 560.469 85.9844C560.094 86.7344 559.812 87.5781 559.625 88.5156C559.469 89.4219 559.391 90.3281 559.391 91.2344C559.391 91.7969 559.438 92.3906 559.531 93.0156C559.656 93.6406 559.797 94.2344 559.953 94.7969ZM592.109 97.2344C592.641 98.4219 593.516 99.375 594.734 100.094C595.953 100.781 597.328 101.125 598.859 101.125C599.328 101.125 600.094 101.062 601.156 100.938C602.219 100.781 603.438 100.312 604.812 99.5312C606.219 98.7188 607.703 97.4531 609.266 95.7344C610.828 94.0156 612.344 91.5938 613.812 88.4688C613.969 88.125 614.188 87.875 614.469 87.7188C614.75 87.5312 615.062 87.4375 615.406 87.4375C615.938 87.4375 616.359 87.625 616.672 88C617.016 88.375 617.188 88.7812 617.188 89.2188C617.188 89.4062 617.125 89.6562 617 89.9688C615.906 92.25 614.688 94.2969 613.344 96.1094C612 97.8906 610.547 99.4219 608.984 100.703C607.422 101.953 605.781 102.906 604.062 103.562C602.375 104.25 600.641 104.594 598.859 104.594C597.453 104.594 596.125 104.375 594.875 103.938C593.656 103.5 592.594 102.922 591.688 102.203C590.812 101.453 590.109 100.625 589.578 99.7188C589.078 98.7812 588.828 97.8281 588.828 96.8594C588.828 96.7344 588.844 96.5625 588.875 96.3438C588.906 96.125 588.984 95.8906 589.109 95.6406C589.266 95.3594 589.469 95.1094 589.719 94.8906C590 94.6406 590.375 94.4375 590.844 94.2812C592.125 93.9062 593.297 93.4531 594.359 92.9219C595.453 92.3594 596.391 91.7344 597.172 91.0469C597.953 90.3594 598.562 89.6094 599 88.7969C599.438 87.9531 599.656 87.0469 599.656 86.0781C599.656 85.2344 599.375 84.5469 598.812 84.0156C598.25 83.4844 597.562 83.2188 596.75 83.2188C595.906 83.2188 595.078 83.5156 594.266 84.1094C593.453 84.6719 592.656 85.4375 591.875 86.4062C591.125 87.3438 590.406 88.4375 589.719 89.6875C589.031 90.9062 588.391 92.1875 587.797 93.5312C587.234 94.875 586.734 96.2188 586.297 97.5625C585.859 98.875 585.5 100.094 585.219 101.219C585.125 101.562 585.016 101.938 584.891 102.344C584.797 102.75 584.641 103.125 584.422 103.469C584.203 103.844 583.938 104.141 583.625 104.359C583.312 104.609 582.906 104.734 582.406 104.734C581.938 104.734 581.484 104.531 581.047 104.125C580.609 103.75 580.391 103.094 580.391 102.156C580.391 101.969 580.391 101.25 580.391 100C580.422 98.75 580.453 97.125 580.484 95.125C580.516 93.0938 580.547 90.7812 580.578 88.1875C580.641 85.5625 580.688 82.7969 580.719 79.8906C580.75 76.9531 580.797 73.9375 580.859 70.8438C580.922 67.75 580.969 64.7344 581 61.7969C581.031 58.8594 581.062 56.0781 581.094 53.4531C581.156 50.7969 581.203 48.4531 581.234 46.4219C581.266 44.3594 581.281 42.6875 581.281 41.4062C581.312 40.0938 581.328 39.3125 581.328 39.0625C581.328 38.5625 581.516 38.1562 581.891 37.8438C582.266 37.5 582.672 37.3281 583.109 37.3281C583.609 37.3281 584.031 37.5 584.375 37.8438C584.719 38.1562 584.891 38.5781 584.891 39.1094C584.891 39.1719 584.875 39.7969 584.844 40.9844C584.844 42.1406 584.828 43.7031 584.797 45.6719C584.766 47.6406 584.719 49.9375 584.656 52.5625C584.625 55.1875 584.578 57.9844 584.516 60.9531C584.484 63.8906 584.438 66.9219 584.375 70.0469C584.344 73.1719 584.297 76.2188 584.234 79.1875C584.203 82.1562 584.172 84.9844 584.141 87.6719C584.109 90.3594 584.078 92.7344 584.047 94.7969C584.547 93.2031 585.188 91.5312 585.969 89.7812C586.75 88 587.672 86.3594 588.734 84.8594C589.797 83.3594 590.984 82.125 592.297 81.1562C593.641 80.1875 595.125 79.7031 596.75 79.7031C597.656 79.7031 598.5 79.875 599.281 80.2188C600.062 80.5312 600.734 80.9844 601.297 81.5781C601.891 82.1406 602.344 82.8125 602.656 83.5938C603 84.375 603.172 85.2188 603.172 86.125C603.172 87.5312 602.859 88.8281 602.234 90.0156C601.609 91.1719 600.781 92.2188 599.75 93.1562C598.719 94.0625 597.531 94.8594 596.188 95.5469C594.875 96.2344 593.516 96.7969 592.109 97.2344ZM650.094 89.9219C649.969 90.1719 649.703 90.7031 649.297 91.5156C648.922 92.2969 648.422 93.2031 647.797 94.2344C647.203 95.2656 646.5 96.3438 645.688 97.4688C644.875 98.5938 643.969 99.625 642.969 100.562C641.969 101.5 640.891 102.281 639.734 102.906C638.578 103.5 637.359 103.797 636.078 103.797C634.266 103.797 632.734 103.219 631.484 102.062C630.266 100.906 629.375 99.4531 628.812 97.7031C627.75 99.4844 626.484 100.906 625.016 101.969C623.547 103 622.078 103.516 620.609 103.516C619.453 103.516 618.406 103.312 617.469 102.906C616.531 102.469 615.734 101.875 615.078 101.125C614.422 100.344 613.906 99.4375 613.531 98.4062C613.188 97.375 613.016 96.25 613.016 95.0312C613.016 92.5938 613.422 90.4531 614.234 88.6094C615.078 86.7344 616.141 85.1719 617.422 83.9219C618.703 82.6719 620.109 81.7344 621.641 81.1094C623.203 80.4844 624.703 80.1719 626.141 80.1719C627.109 80.1719 628 80.3125 628.812 80.5938C629.625 80.8438 630.312 81.125 630.875 81.4375C631.469 81.75 631.922 82.0469 632.234 82.3281C632.547 82.5781 632.719 82.7188 632.75 82.75C633.094 83.1562 633.266 83.5781 633.266 84.0156C633.266 84.4844 633.094 84.9062 632.75 85.2812C632.406 85.625 632 85.7969 631.531 85.7969C631.031 85.7969 630.609 85.625 630.266 85.2812C630.203 85.2188 630.062 85.1094 629.844 84.9531C629.625 84.7656 629.328 84.5781 628.953 84.3906C628.578 84.2031 628.125 84.0469 627.594 83.9219C627.094 83.7656 626.516 83.6875 625.859 83.6875C624.891 83.6875 623.859 83.9062 622.766 84.3438C621.672 84.7812 620.672 85.4688 619.766 86.4062C618.859 87.3125 618.094 88.4688 617.469 89.875C616.875 91.25 616.578 92.8906 616.578 94.7969C616.578 95.3906 616.641 96 616.766 96.625C616.891 97.2188 617.109 97.7656 617.422 98.2656C617.734 98.7656 618.156 99.1719 618.688 99.4844C619.219 99.7969 619.875 99.9531 620.656 99.9531C621.219 99.9531 621.859 99.7656 622.578 99.3906C623.328 99.0156 624.031 98.4375 624.688 97.6562C625.375 96.875 625.984 95.8906 626.516 94.7031C627.078 93.5156 627.469 92.1094 627.688 90.4844C627.75 90.0469 627.953 89.6875 628.297 89.4062C628.641 89.0938 629.047 88.9375 629.516 88.9375C629.953 88.9375 630.328 89.1094 630.641 89.4531C630.984 89.7969 631.172 90.1875 631.203 90.625C631.234 91.2188 631.297 92.0625 631.391 93.1562C631.484 94.2188 631.688 95.2812 632 96.3438C632.344 97.4062 632.844 98.3281 633.5 99.1094C634.156 99.8906 635.062 100.281 636.219 100.281C636.969 100.281 637.703 100.078 638.422 99.6719C639.172 99.2656 639.891 98.7344 640.578 98.0781C641.297 97.3906 641.969 96.625 642.594 95.7812C643.25 94.9062 643.844 94.0312 644.375 93.1562C644.906 92.2812 645.375 91.4375 645.781 90.625C646.188 89.8125 646.531 89.1094 646.812 88.5156C646.969 88.1719 647.188 87.9062 647.469 87.7188C647.781 87.5312 648.109 87.4375 648.453 87.4375C648.984 87.4375 649.406 87.6406 649.719 88.0469C650.062 88.4219 650.234 88.8281 650.234 89.2656C650.234 89.4844 650.188 89.7031 650.094 89.9219Z" fill="black"/>
</g>
<defs>
<filter id="filter0_d_4:12" x="209.734" y="33.5781" width="444.5" height="79.9531" filterUnits="userSpaceOnUse" color-interpolation-filters="sRGB">
<feFlood flood-opacity="0" result="BackgroundImageFix"/>
<feColorMatrix in="SourceAlpha" type="matrix" values="0 0 0 0 0 0 0 0 0 0 0 0 0 0 0 0 0 0 127 0" result="hardAlpha"/>
<feOffset dy="4"/>
<feGaussianBlur stdDeviation="2"/>
<feComposite in2="hardAlpha" operator="out"/>
<feColorMatrix type="matrix" values="0 0 0 0 0 0 0 0 0 0 0 0 0 0 0 0 0 0 0.25 0"/>
<feBlend mode="normal" in2="BackgroundImageFix" result="effect1_dropShadow_4:12"/>
<feBlend mode="normal" in="SourceGraphic" in2="effect1_dropShadow_4:12" result="shape"/>
</filter>
<linearGradient id="paint0_linear_4:12" x1="-0.00100768" y1="84.5175" x2="160.999" y2="84.5175" gradientUnits="userSpaceOnUse">
<stop stop-color="#2484C6"/>
<stop offset="1" stop-color="#2484C6"/>
</linearGradient>
<clipPath id="clip0_4:12">
<rect width="161" height="127" fill="white" transform="translate(0 21)"/>
</clipPath>
</defs>
</svg>
