<svg width="172" height="36" viewBox="0 0 172 36" fill="none" xmlns="http://www.w3.org/2000/svg">
<g filter="url(#filter0_d_4:14)">
<path d="M31.8535 19.5293C31.8418 19.5762 31.7598 19.7754 31.6074 20.127C31.4551 20.4785 31.1973 20.9121 30.834 21.4277C30.4824 21.9434 30.0137 22.5117 29.4277 23.1328C28.8418 23.7539 28.1035 24.3633 27.2129 24.9609C26.3223 25.5469 25.2676 26.0859 24.0488 26.5781C22.8301 27.0586 21.418 27.4277 19.8125 27.6855C18.7344 27.8613 17.6035 27.9492 16.4199 27.9492C15.4355 27.9492 14.4453 27.8789 13.4492 27.7383C12.4648 27.6094 11.5156 27.3984 10.6016 27.1055C9.69922 26.8242 8.85547 26.4609 8.07031 26.0156C7.28516 25.5703 6.59961 25.043 6.01367 24.4336C5.43945 23.8242 4.98242 23.127 4.64258 22.3418C4.31445 21.5449 4.15039 20.6602 4.15039 19.6875C4.15039 17.9648 4.625 16.4824 5.57422 15.2402C6.53516 13.998 7.95312 13.0312 9.82812 12.3398C9.16016 11.7188 8.66211 11.0332 8.33398 10.2832C8.00586 9.5332 7.8418 8.75391 7.8418 7.94531C7.8418 6.9375 8.07031 6.00586 8.52734 5.15039C8.99609 4.29492 9.64062 3.55664 10.4609 2.93555C11.2812 2.31445 12.2539 1.83398 13.3789 1.49414C14.5156 1.14258 15.7578 0.966797 17.1055 0.966797C18.4648 0.966797 19.6484 1.0957 20.6562 1.35352C21.6758 1.61133 22.543 1.93359 23.2578 2.32031C23.9844 2.70703 24.5762 3.12891 25.0332 3.58594C25.502 4.04297 25.8711 4.4707 26.1406 4.86914C26.4102 5.26758 26.5977 5.60742 26.7031 5.88867C26.8086 6.1582 26.8672 6.31055 26.8789 6.3457C26.8906 6.39258 26.8965 6.45703 26.8965 6.53906C26.8965 6.70312 26.832 6.85547 26.7031 6.99609C26.5859 7.125 26.4277 7.18945 26.2285 7.18945C26.0879 7.18945 25.959 7.14844 25.8418 7.06641C25.7363 6.97266 25.6602 6.84961 25.6133 6.69727C25.6133 6.67383 25.5664 6.55078 25.4727 6.32812C25.3789 6.09375 25.2148 5.8125 24.9805 5.48438C24.7461 5.15625 24.4238 4.81055 24.0137 4.44727C23.6152 4.07227 23.0996 3.72656 22.4668 3.41016C21.834 3.08203 21.0781 2.8125 20.1992 2.60156C19.3203 2.39062 18.2891 2.28516 17.1055 2.28516C15.7461 2.28516 14.5625 2.45508 13.5547 2.79492C12.5586 3.13477 11.7324 3.58008 11.0762 4.13086C10.4316 4.66992 9.95117 5.27344 9.63477 5.94141C9.31836 6.60938 9.16016 7.26562 9.16016 7.91016C9.16016 8.67188 9.34766 9.39844 9.72266 10.0898C10.0977 10.7812 10.6367 11.373 11.3398 11.8652C11.9727 11.7012 12.5938 11.5723 13.2031 11.4785C13.8125 11.3848 14.3867 11.3145 14.9258 11.2676C15.4648 11.209 15.9512 11.1738 16.3848 11.1621C16.8301 11.1387 17.1934 11.127 17.4746 11.127C17.9902 11.127 18.4648 11.168 18.8984 11.25C19.332 11.3203 19.7012 11.4316 20.0059 11.584C20.3223 11.7246 20.5684 11.9121 20.7441 12.1465C20.9199 12.3691 21.0078 12.627 21.0078 12.9199C21.0078 13.2129 20.9199 13.4766 20.7441 13.7109C20.5684 13.9453 20.3223 14.1445 20.0059 14.3086C19.7012 14.4727 19.332 14.6016 18.8984 14.6953C18.4648 14.7773 17.9902 14.8184 17.4746 14.8184C16.9121 14.8184 16.3438 14.7832 15.7695 14.7129C15.1953 14.6426 14.6328 14.543 14.082 14.4141C13.543 14.2852 13.0215 14.127 12.5176 13.9395C12.0137 13.7402 11.5566 13.5176 11.1465 13.2715C9.2832 13.834 7.87109 14.6484 6.91016 15.7148C5.94922 16.7695 5.46875 18.0762 5.46875 19.6348C5.46875 20.4785 5.61523 21.2402 5.9082 21.9199C6.21289 22.5879 6.62891 23.1797 7.15625 23.6953C7.68359 24.2109 8.29883 24.6562 9.00195 25.0312C9.7168 25.3945 10.4785 25.6934 11.2871 25.9277C12.0957 26.1621 12.9395 26.3379 13.8184 26.4551C14.6973 26.5605 15.5703 26.6133 16.4375 26.6133C17 26.6133 17.5449 26.5957 18.0723 26.5605C18.5996 26.5137 19.1094 26.4492 19.6016 26.3672C21.0781 26.1328 22.373 25.793 23.4863 25.3477C24.6113 24.8906 25.5781 24.3984 26.3867 23.8711C27.207 23.332 27.8867 22.7871 28.4258 22.2363C28.9648 21.6738 29.3926 21.1641 29.709 20.707C30.0371 20.2383 30.2656 19.8574 30.3945 19.5645C30.5352 19.2715 30.6055 19.1191 30.6055 19.1074C30.6523 18.9668 30.7285 18.8613 30.834 18.791C30.9512 18.709 31.0801 18.668 31.2207 18.668C31.4082 18.668 31.5664 18.7324 31.6953 18.8613C31.8242 18.9902 31.8887 19.1426 31.8887 19.3184C31.8887 19.3652 31.877 19.4355 31.8535 19.5293ZM19.6719 12.9375C19.6719 12.8438 19.5957 12.7617 19.4434 12.6914C19.291 12.6211 19.0918 12.5684 18.8457 12.5332C18.6113 12.4863 18.3418 12.457 18.0371 12.4453C17.7324 12.4219 17.4219 12.4102 17.1055 12.4102C16.4141 12.4102 15.7578 12.4336 15.1367 12.4805C14.5156 12.5156 13.8066 12.6094 13.0098 12.7617C13.6191 12.9844 14.3164 13.166 15.1016 13.3066C15.8984 13.4355 16.7012 13.5 17.5098 13.5C18.248 13.5 18.793 13.4414 19.1445 13.3242C19.4961 13.207 19.6719 13.0781 19.6719 12.9375ZM44.5449 20.8477C44.5449 21.0352 44.4863 21.1992 44.3691 21.3398C44.2637 21.4688 44.1113 21.5391 43.9121 21.5508L37.8652 21.8672C37.6895 21.8789 37.5254 21.832 37.373 21.7266C37.2324 21.6094 37.1621 21.4512 37.1621 21.252C37.1621 21.0645 37.2148 20.9062 37.3203 20.7773C37.4375 20.6367 37.5957 20.5605 37.7949 20.5488L43.8418 20.2324C44.0293 20.2207 44.1875 20.2734 44.3164 20.3906C44.457 20.5078 44.5332 20.6602 44.5449 20.8477ZM78.998 24.1348C78.9863 24.1582 78.916 24.2578 78.7871 24.4336C78.6582 24.6094 78.4707 24.8262 78.2246 25.084C77.9902 25.3301 77.6914 25.5996 77.3281 25.8926C76.9766 26.1738 76.5547 26.4375 76.0625 26.6836C75.582 26.918 75.0371 27.1172 74.4277 27.2812C73.8184 27.4453 73.1445 27.5273 72.4062 27.5273C71.2578 27.5273 70.1797 27.3809 69.1719 27.0879C68.1641 26.8066 67.1914 26.4434 66.2539 25.998C65.3281 25.5527 64.4141 25.0605 63.5117 24.5215C62.6094 23.9824 61.6895 23.4551 60.752 22.9395C60.1777 23.9004 59.5156 24.6855 58.7656 25.2949C58.0273 25.8926 57.2539 26.3613 56.4453 26.7012C55.6484 27.041 54.8516 27.2695 54.0547 27.3867C53.2695 27.5156 52.543 27.5801 51.875 27.5801C51.2305 27.5801 50.5742 27.5098 49.9062 27.3691C49.25 27.2402 48.6523 27.0234 48.1133 26.7188C47.5859 26.4023 47.1523 25.9922 46.8125 25.4883C46.4727 24.9844 46.3027 24.3574 46.3027 23.6074C46.3027 22.9043 46.4668 22.2715 46.7949 21.709C47.1113 21.1348 47.5508 20.6484 48.1133 20.25C48.6875 19.8516 49.3613 19.5469 50.1348 19.3359C50.9082 19.1133 51.7402 19.002 52.6309 19.002C53.2988 19.002 53.9609 19.0605 54.6172 19.1777C55.2852 19.2949 55.9355 19.4531 56.5684 19.6523C57.2012 19.8516 57.8164 20.0801 58.4141 20.3379C59.0117 20.584 59.5742 20.8359 60.1016 21.0938C60.1719 20.8828 60.2305 20.6719 60.2773 20.4609C60.3359 20.25 60.3828 20.0215 60.418 19.7754C60.4648 19.5176 60.4941 19.2363 60.5059 18.9316C60.5293 18.6152 60.541 18.252 60.541 17.8418C60.541 17.4551 60.5293 17.0859 60.5059 16.7344C60.4941 16.3828 60.4766 16.002 60.4531 15.5918C60.4414 15.1699 60.4238 14.7012 60.4004 14.1855C60.3887 13.6582 60.3828 13.0312 60.3828 12.3047C60.3828 10.6289 60.5469 9.10547 60.875 7.73438C61.2031 6.35156 61.6895 5.16797 62.334 4.18359C62.9785 3.19922 63.7812 2.4375 64.7422 1.89844C65.7031 1.34766 66.8223 1.07227 68.0996 1.07227C68.873 1.07227 69.6055 1.19531 70.2969 1.44141C71 1.6875 71.6152 2.03906 72.1426 2.49609C72.6816 2.95312 73.1035 3.49805 73.4082 4.13086C73.7246 4.76367 73.8828 5.4668 73.8828 6.24023C73.8828 6.66211 73.8242 7.10156 73.707 7.55859C73.5898 8.01562 73.4258 8.4375 73.2148 8.82422C73.0156 9.19922 72.7812 9.50977 72.5117 9.75586C72.2539 10.002 71.9785 10.125 71.6855 10.125C71.5215 10.125 71.375 10.0781 71.2461 9.98438C71.1172 9.89062 71.0527 9.74414 71.0527 9.54492C71.0527 9.4043 71.082 9.28711 71.1406 9.19336C71.2109 9.08789 71.293 8.99414 71.3867 8.91211C71.7266 8.60742 72.002 8.23242 72.2129 7.78711C72.4355 7.3418 72.5469 6.82617 72.5469 6.24023C72.5469 5.6543 72.4238 5.12695 72.1777 4.6582C71.9434 4.17773 71.6211 3.77344 71.2109 3.44531C70.8125 3.10547 70.3438 2.84766 69.8047 2.67188C69.2773 2.48438 68.7207 2.39062 68.1348 2.39062C67.0332 2.39062 66.0781 2.63086 65.2695 3.11133C64.4609 3.5918 63.793 4.27148 63.2656 5.15039C62.7383 6.01758 62.3457 7.07227 62.0879 8.31445C61.8418 9.54492 61.7188 10.916 61.7188 12.4277C61.7188 13.1543 61.7246 13.793 61.7363 14.3438C61.7598 14.8945 61.7773 15.3984 61.7891 15.8555C61.8125 16.3125 61.8301 16.7461 61.8418 17.1562C61.8652 17.5547 61.877 17.9648 61.877 18.3867C61.877 18.6328 61.8652 18.9023 61.8418 19.1953C61.8184 19.4766 61.7832 19.7695 61.7363 20.0742C61.6895 20.3672 61.625 20.6602 61.543 20.9531C61.4727 21.2344 61.3906 21.4922 61.2969 21.7266C62.1875 22.1953 63.0664 22.6934 63.9336 23.2207C64.8008 23.748 65.6797 24.2344 66.5703 24.6797C67.4727 25.1133 68.3984 25.4766 69.3477 25.7695C70.3086 26.0508 71.3223 26.1914 72.3887 26.1914C73.3262 26.1914 74.1348 26.0508 74.8145 25.7695C75.5059 25.4883 76.0742 25.1777 76.5195 24.8379C76.9766 24.4863 77.3164 24.1699 77.5391 23.8887C77.7617 23.5957 77.873 23.4434 77.873 23.4316C78.002 23.2207 78.1895 23.1152 78.4355 23.1152C78.6348 23.1152 78.793 23.1855 78.9102 23.3262C79.0391 23.4668 79.1035 23.6191 79.1035 23.7832C79.1035 23.9121 79.0684 24.0293 78.998 24.1348ZM59.5918 22.2891C59.0879 22.043 58.5547 21.8027 57.9922 21.5684C57.4414 21.3223 56.873 21.1055 56.2871 20.918C55.7012 20.7305 55.0977 20.584 54.4766 20.4785C53.8672 20.3613 53.2578 20.3027 52.6484 20.3027C51.957 20.3027 51.3066 20.3789 50.6973 20.5312C50.0879 20.6719 49.5547 20.8828 49.0977 21.1641C48.6406 21.4453 48.2773 21.7852 48.0078 22.1836C47.75 22.582 47.6211 23.0332 47.6211 23.5371C47.6211 24.0059 47.7383 24.416 47.9727 24.7676C48.207 25.1074 48.5176 25.3945 48.9043 25.6289C49.3027 25.8516 49.7598 26.0215 50.2754 26.1387C50.791 26.2441 51.3301 26.2969 51.8926 26.2969C52.5723 26.2969 53.2754 26.2441 54.002 26.1387C54.7285 26.0215 55.4316 25.8164 56.1113 25.5234C56.791 25.2188 57.4297 24.8086 58.0273 24.293C58.625 23.7656 59.1465 23.0977 59.5918 22.2891ZM83.3398 13.2012C83.3398 13.6465 83.1816 14.0273 82.8652 14.3438C82.5605 14.6484 82.1855 14.8008 81.7402 14.8008C81.2949 14.8008 80.9141 14.6484 80.5977 14.3438C80.293 14.0273 80.1406 13.6465 80.1406 13.2012C80.1406 12.9785 80.1816 12.7734 80.2637 12.5859C80.3457 12.3867 80.457 12.2168 80.5977 12.0762C80.75 11.9238 80.9199 11.8066 81.1074 11.7246C81.3066 11.6426 81.5176 11.6016 81.7402 11.6016C81.9629 11.6016 82.168 11.6426 82.3555 11.7246C82.5547 11.8066 82.7246 11.9238 82.8652 12.0762C83.0176 12.2168 83.1348 12.3867 83.2168 12.5859C83.2988 12.7734 83.3398 12.9785 83.3398 13.2012ZM80.4922 23.502C80.4922 21.8145 80.5977 20.1328 80.8086 18.457C80.832 18.293 80.9023 18.1523 81.0195 18.0352C81.1484 17.9062 81.3125 17.8418 81.5117 17.8418C81.6875 17.8418 81.834 17.9121 81.9512 18.0527C82.0684 18.1816 82.127 18.334 82.127 18.5098C82.127 18.5801 82.1094 18.791 82.0742 19.1426C82.0508 19.4941 82.0156 19.916 81.9688 20.4082C81.9336 20.8887 81.8984 21.4043 81.8633 21.9551C81.8398 22.4941 81.8281 22.9922 81.8281 23.4492C81.8281 24.0703 81.8867 24.5742 82.0039 24.9609C82.1328 25.3359 82.291 25.6289 82.4785 25.8398C82.6777 26.0508 82.8828 26.1914 83.0938 26.2617C83.3164 26.332 83.5273 26.3672 83.7266 26.3672C84.0547 26.3672 84.3945 26.25 84.7461 26.0156C85.0977 25.7812 85.4551 25.4531 85.8184 25.0312C86.1934 24.6094 86.5684 24.1055 86.9434 23.5195C87.3184 22.9219 87.6875 22.2598 88.0508 21.5332C88.1094 21.416 88.1914 21.3281 88.2969 21.2695C88.4023 21.1992 88.5195 21.1641 88.6484 21.1641C88.8359 21.1641 88.9883 21.2344 89.1055 21.375C89.2344 21.5156 89.2988 21.668 89.2988 21.832C89.2988 21.9492 89.2754 22.0488 89.2285 22.1309C89.0879 22.4004 88.9121 22.7285 88.7012 23.1152C88.4902 23.502 88.25 23.9004 87.9805 24.3105C87.7109 24.7207 87.4121 25.1309 87.084 25.541C86.7676 25.9395 86.4277 26.3027 86.0645 26.6309C85.7012 26.9473 85.3203 27.2051 84.9219 27.4043C84.5234 27.6035 84.1191 27.7031 83.709 27.7031C83.1816 27.7031 82.7188 27.5918 82.3203 27.3691C81.9219 27.1465 81.582 26.8477 81.3008 26.4727C81.0312 26.0977 80.8262 25.6582 80.6855 25.1543C80.5566 24.6387 80.4922 24.0879 80.4922 23.502ZM82.3555 13.2012C82.3555 13.0371 82.291 12.8965 82.1621 12.7793C82.0449 12.6504 81.9043 12.5859 81.7402 12.5859C81.5762 12.5859 81.4355 12.6504 81.3184 12.7793C81.2012 12.8965 81.1426 13.0371 81.1426 13.2012C81.1426 13.3652 81.2012 13.5059 81.3184 13.623C81.4355 13.7402 81.5762 13.7988 81.7402 13.7988C81.9043 13.7988 82.0449 13.7402 82.1621 13.623C82.291 13.5059 82.3555 13.3652 82.3555 13.2012ZM102.852 22.1309C102.816 22.2012 102.74 22.3477 102.623 22.5703C102.506 22.7812 102.354 23.0332 102.166 23.3262C101.979 23.6074 101.756 23.9121 101.498 24.2402C101.24 24.5566 100.959 24.8496 100.654 25.1191C100.35 25.3887 100.021 25.6113 99.6699 25.7871C99.3184 25.9629 98.9551 26.0508 98.5801 26.0508C97.9707 26.0508 97.4551 25.9453 97.0332 25.7344C96.6113 25.5117 96.2656 25.2656 95.9961 24.9961C95.8086 25.4062 95.5801 25.7812 95.3105 26.1211C95.041 26.4609 94.7422 26.7539 94.4141 27C94.0859 27.2578 93.7344 27.457 93.3594 27.5977C92.9961 27.7383 92.6211 27.8086 92.2344 27.8086C91.5195 27.8086 90.9102 27.5977 90.4062 27.1758C89.9023 26.7539 89.4805 26.1914 89.1406 25.4883C88.8125 24.7734 88.5547 23.9473 88.3672 23.0098C88.1797 22.0723 88.0332 21.0879 87.9277 20.0566C87.834 19.0254 87.7754 17.9824 87.752 16.9277C87.7285 15.873 87.7168 14.8711 87.7168 13.9219C87.7168 12.1055 87.7695 10.5352 87.875 9.21094C87.9805 7.875 88.1211 6.74414 88.2969 5.81836C88.4844 4.88086 88.6953 4.125 88.9297 3.55078C89.1758 2.96484 89.4336 2.51367 89.7031 2.19727C89.9727 1.86914 90.248 1.64648 90.5293 1.5293C90.8105 1.41211 91.0859 1.35352 91.3555 1.35352C91.7891 1.35352 92.1699 1.48242 92.498 1.74023C92.8379 1.99805 93.1191 2.36133 93.3418 2.83008C93.5762 3.28711 93.752 3.84375 93.8691 4.5C93.9863 5.15625 94.0449 5.87695 94.0449 6.66211C94.0449 7.91602 93.9102 9.21094 93.6406 10.5469C93.3711 11.8828 93.0195 13.2188 92.5859 14.5547C92.1641 15.8789 91.6895 17.1855 91.1621 18.4746C90.6348 19.752 90.1133 20.9648 89.5977 22.1133C89.668 22.6875 89.7734 23.2383 89.9141 23.7656C90.0547 24.2812 90.2363 24.7441 90.459 25.1543C90.6816 25.5527 90.9453 25.875 91.25 26.1211C91.5547 26.3555 91.9062 26.4727 92.3047 26.4727C92.7031 26.4727 93.0781 26.3613 93.4297 26.1387C93.7812 25.9043 94.0859 25.6055 94.3438 25.2422C94.6016 24.8672 94.8008 24.4453 94.9414 23.9766C95.0938 23.5078 95.1699 23.0273 95.1699 22.5352C95.1699 22.207 95.1348 21.8789 95.0645 21.5508C95.0059 21.2109 94.9062 20.9121 94.7656 20.6543C94.6367 20.3848 94.4727 20.168 94.2734 20.0039C94.0742 19.8398 93.834 19.7578 93.5527 19.7578C93.3418 19.7578 93.1777 19.8047 93.0605 19.8984C92.9434 19.9805 92.8555 20.0801 92.7969 20.1973C92.7383 20.3027 92.7031 20.4082 92.6914 20.5137C92.6797 20.6191 92.6738 20.6895 92.6738 20.7246C92.6738 20.8887 92.709 21.0527 92.7793 21.2168C92.8496 21.3809 92.9844 21.5273 93.1836 21.6562C93.3828 21.7969 93.4824 21.9902 93.4824 22.2363C93.4824 22.4355 93.4121 22.5938 93.2715 22.7109C93.1426 22.8281 92.9961 22.8867 92.832 22.8867C92.5977 22.8867 92.3867 22.8164 92.1992 22.6758C92.0234 22.5352 91.8711 22.3594 91.7422 22.1484C91.6133 21.9258 91.5137 21.6914 91.4434 21.4453C91.373 21.1992 91.3379 20.9707 91.3379 20.7598C91.3379 20.4199 91.3965 20.1094 91.5137 19.8281C91.6309 19.5352 91.7891 19.2891 91.9883 19.0898C92.1992 18.8789 92.4336 18.7207 92.6914 18.6152C92.9609 18.498 93.2422 18.4395 93.5352 18.4395C94.0391 18.4395 94.4727 18.5566 94.8359 18.791C95.2109 19.0254 95.5215 19.3359 95.7676 19.7227C96.0137 20.1094 96.1953 20.5488 96.3125 21.041C96.4297 21.5332 96.4883 22.0312 96.4883 22.5352C96.4883 22.8281 96.4707 23.1152 96.4355 23.3965C96.4824 23.4902 96.5586 23.6133 96.6641 23.7656C96.7695 23.918 96.9102 24.0645 97.0859 24.2051C97.2617 24.3457 97.4727 24.4688 97.7188 24.5742C97.9648 24.6797 98.252 24.7324 98.5801 24.7324C98.8613 24.7324 99.1484 24.627 99.4414 24.416C99.7461 24.1934 100.033 23.9238 100.303 23.6074C100.584 23.2793 100.842 22.9336 101.076 22.5703C101.311 22.1953 101.504 21.8496 101.656 21.5332C101.715 21.416 101.797 21.3281 101.902 21.2695C102.008 21.1992 102.125 21.1641 102.254 21.1641C102.453 21.1641 102.611 21.2344 102.729 21.375C102.857 21.5156 102.922 21.6738 102.922 21.8496C102.922 21.9199 102.898 22.0137 102.852 22.1309ZM89.2637 19.8633C89.6621 18.8789 90.0664 17.8477 90.4766 16.7695C90.8867 15.6797 91.2559 14.5723 91.584 13.4473C91.9121 12.3223 92.1816 11.1855 92.3926 10.0371C92.6035 8.88867 92.709 7.75781 92.709 6.64453C92.709 6.22266 92.6855 5.7832 92.6387 5.32617C92.6035 4.85742 92.5332 4.42969 92.4277 4.04297C92.3223 3.65625 92.1758 3.33398 91.9883 3.07617C91.8125 2.81836 91.584 2.68945 91.3027 2.68945C91.209 2.68945 91.0859 2.75391 90.9336 2.88281C90.793 3 90.6406 3.2168 90.4766 3.5332C90.3125 3.83789 90.1484 4.26562 89.9844 4.81641C89.8203 5.36719 89.668 6.07031 89.5273 6.92578C89.3984 7.76953 89.2871 8.78906 89.1934 9.98438C89.1113 11.1797 89.0703 12.5859 89.0703 14.2031C89.0703 14.7422 89.0762 15.293 89.0879 15.8555C89.0996 16.4062 89.1113 16.9336 89.123 17.4375C89.1465 17.9414 89.1699 18.4043 89.1934 18.8262C89.2168 19.248 89.2402 19.5938 89.2637 19.8633ZM103.52 19.7754C103.473 20.0918 103.414 20.3906 103.344 20.6719C103.273 20.9414 103.203 21.1816 103.133 21.3926C103.074 21.5918 103.021 21.7559 102.975 21.8848C102.928 22.0137 102.898 22.084 102.887 22.0957C102.77 22.3652 102.564 22.5 102.271 22.5C102.107 22.5 101.955 22.4414 101.814 22.3242C101.674 22.1953 101.604 22.0371 101.604 21.8496C101.604 21.7793 101.615 21.7266 101.639 21.6914C101.662 21.6562 101.697 21.5859 101.744 21.4805C101.791 21.375 101.85 21.1992 101.92 20.9531C101.99 20.707 102.078 20.3262 102.184 19.8105C101.984 19.8105 101.779 19.8047 101.568 19.793C101.357 19.7812 101.164 19.7402 100.988 19.6699C100.801 19.5996 100.648 19.4883 100.531 19.3359C100.414 19.1836 100.355 18.9727 100.355 18.7031C100.355 18.5039 100.414 18.2344 100.531 17.8945C100.637 17.5547 100.783 17.2207 100.971 16.8926C101.158 16.5645 101.369 16.2832 101.604 16.0488C101.838 15.8027 102.072 15.6797 102.307 15.6797C102.576 15.6797 102.793 15.7793 102.957 15.9785C103.133 16.1777 103.268 16.4238 103.361 16.7168C103.455 16.998 103.52 17.2969 103.555 17.6133C103.602 17.9297 103.625 18.2051 103.625 18.4395C103.824 18.4395 104.018 18.4395 104.205 18.4395C104.404 18.4277 104.592 18.4219 104.768 18.4219C105.436 18.4219 105.945 18.5684 106.297 18.8613C106.648 19.1543 106.824 19.6348 106.824 20.3027C106.824 20.5723 106.807 20.8535 106.771 21.1465C106.736 21.4395 106.695 21.7441 106.648 22.0605C106.602 22.3652 106.561 22.6699 106.525 22.9746C106.49 23.2793 106.473 23.5781 106.473 23.8711C106.473 24.293 106.531 24.6445 106.648 24.9258C106.766 25.1953 106.912 25.4121 107.088 25.5762C107.264 25.7402 107.451 25.8574 107.65 25.9277C107.85 25.9863 108.031 26.0156 108.195 26.0156C108.699 26.0156 109.174 25.8516 109.619 25.5234C110.064 25.1953 110.475 24.8027 110.85 24.3457C111.225 23.877 111.559 23.3848 111.852 22.8691C112.156 22.3535 112.408 21.9023 112.607 21.5156C112.666 21.4102 112.748 21.3281 112.854 21.2695C112.959 21.2109 113.07 21.1816 113.188 21.1816C113.398 21.1816 113.562 21.252 113.68 21.3926C113.797 21.5215 113.855 21.668 113.855 21.832C113.855 21.9492 113.832 22.0547 113.785 22.1484C113.516 22.6289 113.199 23.1738 112.836 23.7832C112.484 24.3809 112.08 24.9434 111.623 25.4707C111.166 25.998 110.65 26.4434 110.076 26.8066C109.514 27.1699 108.893 27.3516 108.213 27.3516C107.791 27.3516 107.393 27.2695 107.018 27.1055C106.643 26.9531 106.314 26.7305 106.033 26.4375C105.764 26.1328 105.547 25.7637 105.383 25.3301C105.219 24.8848 105.137 24.3867 105.137 23.8359C105.137 23.25 105.195 22.6699 105.312 22.0957C105.43 21.5098 105.488 20.9531 105.488 20.4258C105.488 20.2031 105.436 20.0391 105.33 19.9336C105.236 19.8164 105.02 19.7578 104.68 19.7578C104.516 19.7578 104.334 19.7578 104.135 19.7578C103.947 19.7578 103.742 19.7637 103.52 19.7754ZM102.342 18.4746C102.342 18.3926 102.336 18.2871 102.324 18.1582C102.324 18.0176 102.312 17.8828 102.289 17.7539C102.277 17.625 102.254 17.5137 102.219 17.4199C102.195 17.3262 102.166 17.2793 102.131 17.2793C102.096 17.2793 102.049 17.3262 101.99 17.4199C101.943 17.502 101.891 17.6074 101.832 17.7363C101.773 17.8535 101.721 17.9824 101.674 18.123C101.627 18.2637 101.592 18.3809 101.568 18.4746H102.342ZM120.711 25.0664C120.418 25.0664 120.16 25.043 119.938 24.9961C119.762 25.3477 119.551 25.6758 119.305 25.9805C119.059 26.2734 118.771 26.5312 118.443 26.7539C118.127 26.9766 117.77 27.1523 117.371 27.2812C116.973 27.4102 116.539 27.4746 116.07 27.4746C115.52 27.4746 115.016 27.375 114.559 27.1758C114.102 26.9883 113.703 26.7246 113.363 26.3848C113.023 26.0332 112.76 25.6172 112.572 25.1367C112.385 24.6445 112.291 24.1055 112.291 23.5195C112.291 22.7695 112.426 22.1191 112.695 21.5684C112.965 21.0059 113.275 20.543 113.627 20.1797C113.979 19.8047 114.33 19.5293 114.682 19.3535C115.033 19.166 115.297 19.0723 115.473 19.0723C115.672 19.0723 115.818 19.125 115.912 19.2305C116.018 19.3359 116.07 19.4766 116.07 19.6523C116.07 19.8516 116.006 20.0039 115.877 20.1094C115.76 20.2031 115.607 20.2969 115.42 20.3906C115.232 20.4844 115.033 20.6191 114.822 20.7949C114.611 20.959 114.412 21.1699 114.225 21.4277C114.049 21.6855 113.902 21.9902 113.785 22.3418C113.668 22.6934 113.609 23.0859 113.609 23.5195C113.609 23.9062 113.668 24.2695 113.785 24.6094C113.902 24.9375 114.072 25.2246 114.295 25.4707C114.518 25.7051 114.781 25.8926 115.086 26.0332C115.391 26.1621 115.73 26.2266 116.105 26.2266C116.773 26.2266 117.324 26.0742 117.758 25.7695C118.203 25.4531 118.543 25.0547 118.777 24.5742C118.086 24.2109 117.518 23.6953 117.072 23.0273C116.627 22.3594 116.404 21.6094 116.404 20.7773C116.404 20.1094 116.562 19.5645 116.879 19.1426C117.207 18.7207 117.635 18.5098 118.162 18.5098C118.479 18.5098 118.777 18.5859 119.059 18.7383C119.34 18.8906 119.586 19.1309 119.797 19.459C120.02 19.7871 120.195 20.209 120.324 20.7246C120.453 21.2402 120.518 21.8555 120.518 22.5703C120.518 22.9453 120.471 23.3379 120.377 23.748C120.447 23.7598 120.518 23.7656 120.588 23.7656C120.658 23.7656 120.734 23.7656 120.816 23.7656C121.215 23.7656 121.572 23.7188 121.889 23.625C122.205 23.5312 122.492 23.3906 122.75 23.2031C123.008 23.0156 123.236 22.7754 123.436 22.4824C123.646 22.1895 123.846 21.8496 124.033 21.4629C124.068 21.3926 124.145 21.3281 124.262 21.2695C124.379 21.1992 124.496 21.1641 124.613 21.1641C124.766 21.1641 124.906 21.2285 125.035 21.3574C125.176 21.4746 125.246 21.6328 125.246 21.832C125.246 21.9258 125.223 22.0312 125.176 22.1484C125.129 22.2539 125.082 22.3535 125.035 22.4473C124.836 22.7988 124.602 23.1387 124.332 23.4668C124.074 23.7832 123.764 24.0645 123.4 24.3105C123.049 24.5449 122.65 24.7324 122.205 24.873C121.76 25.0137 121.262 25.0781 120.711 25.0664ZM117.705 20.6367C117.705 20.8594 117.734 21.0938 117.793 21.3398C117.852 21.5859 117.939 21.832 118.057 22.0781C118.186 22.3125 118.338 22.541 118.514 22.7637C118.701 22.9746 118.918 23.1562 119.164 23.3086C119.199 23.0625 119.217 22.8223 119.217 22.5879C119.217 22.2715 119.193 21.9492 119.146 21.6211C119.1 21.293 119.029 20.9941 118.936 20.7246C118.854 20.4434 118.748 20.2207 118.619 20.0566C118.49 19.8809 118.338 19.793 118.162 19.793C118.092 19.793 117.998 19.8457 117.881 19.9512C117.764 20.0566 117.705 20.2852 117.705 20.6367ZM138.236 9.4043C138.236 9.5918 138.172 9.74414 138.043 9.86133C137.914 9.9668 137.756 10.0195 137.568 10.0195H128.656V10.2129C128.656 10.9277 128.604 11.6895 128.498 12.498C128.393 13.3066 128.246 14.1152 128.059 14.9238C127.883 15.7207 127.678 16.5 127.443 17.2617C127.221 18.0234 126.986 18.7266 126.74 19.3711C126.506 20.0156 126.271 20.5781 126.037 21.0586C125.803 21.5273 125.592 21.8789 125.404 22.1133C125.557 22.6523 125.738 23.1562 125.949 23.625C126.16 24.082 126.395 24.4863 126.652 24.8379C126.922 25.1777 127.209 25.4473 127.514 25.6465C127.818 25.8457 128.146 25.9453 128.498 25.9453C128.908 25.9453 129.312 25.7754 129.711 25.4355C130.121 25.084 130.496 24.6738 130.836 24.2051C131.188 23.7246 131.492 23.2441 131.75 22.7637C132.02 22.2715 132.213 21.8789 132.33 21.5859C132.447 21.3047 132.652 21.1641 132.945 21.1641C133.145 21.1641 133.303 21.2344 133.42 21.375C133.549 21.5156 133.613 21.668 133.613 21.832C133.613 21.9141 133.596 21.9961 133.561 22.0781C133.525 22.1602 133.438 22.3477 133.297 22.6406C133.168 22.9336 132.992 23.2734 132.77 23.6602C132.559 24.0469 132.307 24.457 132.014 24.8906C131.732 25.3125 131.41 25.6992 131.047 26.0508C130.695 26.4023 130.314 26.6953 129.904 26.9297C129.494 27.1641 129.061 27.2812 128.604 27.2812C127.795 27.2812 127.068 27.0176 126.424 26.4902C125.779 25.9629 125.229 25.2246 124.771 24.2754C124.326 23.3262 123.986 22.2012 123.752 20.9004C123.518 19.5996 123.4 18.1758 123.4 16.6289C123.4 16.2422 123.406 15.791 123.418 15.2754C123.43 14.748 123.453 14.1973 123.488 13.623C123.523 13.0371 123.576 12.4395 123.646 11.8301C123.717 11.209 123.811 10.6055 123.928 10.0195H117.617C117.43 10.0195 117.271 9.9668 117.143 9.86133C117.014 9.74414 116.949 9.5918 116.949 9.4043C116.949 9.2168 117.014 9.07031 117.143 8.96484C117.271 8.84766 117.43 8.78906 117.617 8.78906H124.227C124.344 8.36719 124.479 7.98047 124.631 7.62891C124.795 7.27734 124.977 6.97266 125.176 6.71484C125.387 6.45703 125.615 6.25781 125.861 6.11719C126.119 5.96484 126.4 5.88867 126.705 5.88867C126.998 5.88867 127.25 5.96484 127.461 6.11719C127.684 6.25781 127.871 6.45703 128.023 6.71484C128.176 6.97266 128.293 7.27734 128.375 7.62891C128.469 7.98047 128.539 8.36719 128.586 8.78906H137.568C137.756 8.78906 137.914 8.84766 138.043 8.96484C138.172 9.07031 138.236 9.2168 138.236 9.4043ZM125 20.3555C125.352 19.582 125.668 18.75 125.949 17.8594C126.242 16.957 126.488 16.0488 126.688 15.1348C126.898 14.2207 127.057 13.3242 127.162 12.4453C127.279 11.5664 127.338 10.7578 127.338 10.0195H125.264C125.1 10.7461 124.965 11.6484 124.859 12.7266C124.766 13.793 124.719 15.0938 124.719 16.6289C124.719 17.4844 124.742 18.2051 124.789 18.791C124.836 19.3652 124.906 19.8867 125 20.3555ZM126.635 7.20703C126.529 7.20703 126.377 7.32422 126.178 7.55859C125.979 7.78125 125.779 8.19141 125.58 8.78906H127.268C127.209 8.29688 127.121 7.91016 127.004 7.62891C126.898 7.34766 126.775 7.20703 126.635 7.20703ZM125.281 21.6211V21.6387V21.6211ZM134.51 25.0664C134.756 25.4062 135.072 25.6816 135.459 25.8926C135.846 26.0918 136.32 26.1914 136.883 26.1914C137.457 26.1914 137.979 26.0566 138.447 25.7871C138.916 25.5059 139.344 25.1426 139.73 24.6973C140.117 24.252 140.463 23.7539 140.768 23.2031C141.072 22.6523 141.348 22.1016 141.594 21.5508C141.652 21.4219 141.734 21.3281 141.84 21.2695C141.945 21.1992 142.062 21.1641 142.191 21.1641C142.391 21.1641 142.549 21.2344 142.666 21.375C142.795 21.5156 142.859 21.668 142.859 21.832C142.859 21.8906 142.854 21.9434 142.842 21.9902C142.83 22.0254 142.812 22.0664 142.789 22.1133C141.98 23.8945 141.096 25.2363 140.135 26.1387C139.186 27.041 138.107 27.5039 136.9 27.5273C136.127 27.5273 135.459 27.375 134.896 27.0703C134.334 26.7773 133.871 26.3965 133.508 25.9277C133.145 25.4473 132.875 24.9082 132.699 24.3105C132.523 23.7129 132.436 23.1152 132.436 22.5176C132.436 21.9199 132.506 21.3691 132.646 20.8652C132.799 20.3613 133.01 19.9219 133.279 19.5469C133.561 19.1719 133.889 18.8789 134.264 18.668C134.65 18.457 135.072 18.3516 135.529 18.3516C135.799 18.3516 136.062 18.4102 136.32 18.5273C136.59 18.6328 136.83 18.791 137.041 19.002C137.252 19.2012 137.422 19.4473 137.551 19.7402C137.68 20.0332 137.744 20.3672 137.744 20.7422C137.744 21.2227 137.662 21.6738 137.498 22.0957C137.334 22.5176 137.105 22.9102 136.812 23.2734C136.531 23.6367 136.191 23.9707 135.793 24.2754C135.395 24.5801 134.967 24.8438 134.51 25.0664ZM133.982 23.9238C134.346 23.7715 134.674 23.5781 134.967 23.3438C135.271 23.1094 135.529 22.8516 135.74 22.5703C135.951 22.2891 136.115 21.9961 136.232 21.6914C136.35 21.375 136.408 21.0586 136.408 20.7422C136.408 20.3906 136.32 20.127 136.145 19.9512C135.969 19.7637 135.764 19.6699 135.529 19.6699C135.213 19.6699 134.943 19.7578 134.721 19.9336C134.498 20.1094 134.316 20.3379 134.176 20.6191C134.035 20.9004 133.93 21.2168 133.859 21.5684C133.801 21.9082 133.771 22.248 133.771 22.5879C133.771 22.7988 133.789 23.0215 133.824 23.2559C133.871 23.4902 133.924 23.7129 133.982 23.9238ZM146.041 24.8379C146.24 25.2832 146.568 25.6406 147.025 25.9102C147.482 26.168 147.998 26.2969 148.572 26.2969C148.748 26.2969 149.035 26.2734 149.434 26.2266C149.832 26.168 150.289 25.9922 150.805 25.6992C151.332 25.3945 151.889 24.9199 152.475 24.2754C153.061 23.6309 153.629 22.7227 154.18 21.5508C154.238 21.4219 154.32 21.3281 154.426 21.2695C154.531 21.1992 154.648 21.1641 154.777 21.1641C154.977 21.1641 155.135 21.2344 155.252 21.375C155.381 21.5156 155.445 21.668 155.445 21.832C155.445 21.9023 155.422 21.9961 155.375 22.1133C154.965 22.9688 154.508 23.7363 154.004 24.416C153.5 25.084 152.955 25.6582 152.369 26.1387C151.783 26.6074 151.168 26.9648 150.523 27.2109C149.891 27.4688 149.24 27.5977 148.572 27.5977C148.045 27.5977 147.547 27.5156 147.078 27.3516C146.621 27.1875 146.223 26.9707 145.883 26.7012C145.555 26.4199 145.291 26.1094 145.092 25.7695C144.904 25.418 144.811 25.0605 144.811 24.6973C144.811 24.6504 144.816 24.5859 144.828 24.5039C144.84 24.4219 144.869 24.334 144.916 24.2402C144.975 24.1348 145.051 24.041 145.145 23.959C145.25 23.8652 145.391 23.7891 145.566 23.7305C146.047 23.5898 146.486 23.4199 146.885 23.2207C147.295 23.0098 147.646 22.7754 147.939 22.5176C148.232 22.2598 148.461 21.9785 148.625 21.6738C148.789 21.3574 148.871 21.0176 148.871 20.6543C148.871 20.3379 148.766 20.0801 148.555 19.8809C148.344 19.6816 148.086 19.582 147.781 19.582C147.465 19.582 147.154 19.6934 146.85 19.916C146.545 20.127 146.246 20.4141 145.953 20.7773C145.672 21.1289 145.402 21.5391 145.145 22.0078C144.887 22.4648 144.646 22.9453 144.424 23.4492C144.213 23.9531 144.025 24.457 143.861 24.9609C143.697 25.4531 143.562 25.9102 143.457 26.332C143.422 26.4609 143.381 26.6016 143.334 26.7539C143.299 26.9062 143.24 27.0469 143.158 27.1758C143.076 27.3164 142.977 27.4277 142.859 27.5098C142.742 27.6035 142.59 27.6504 142.402 27.6504C142.227 27.6504 142.057 27.5742 141.893 27.4219C141.729 27.2812 141.646 27.0352 141.646 26.6836C141.646 26.6133 141.646 26.3438 141.646 25.875C141.658 25.4062 141.67 24.7969 141.682 24.0469C141.693 23.2852 141.705 22.418 141.717 21.4453C141.74 20.4609 141.758 19.4238 141.77 18.334C141.781 17.2324 141.799 16.1016 141.822 14.9414C141.846 13.7812 141.863 12.6504 141.875 11.5488C141.887 10.4473 141.898 9.4043 141.91 8.41992C141.934 7.42383 141.951 6.54492 141.963 5.7832C141.975 5.00977 141.98 4.38281 141.98 3.90234C141.992 3.41016 141.998 3.11719 141.998 3.02344C141.998 2.83594 142.068 2.68359 142.209 2.56641C142.35 2.4375 142.502 2.37305 142.666 2.37305C142.854 2.37305 143.012 2.4375 143.141 2.56641C143.27 2.68359 143.334 2.8418 143.334 3.04102C143.334 3.06445 143.328 3.29883 143.316 3.74414C143.316 4.17773 143.311 4.76367 143.299 5.50195C143.287 6.24023 143.27 7.10156 143.246 8.08594C143.234 9.07031 143.217 10.1191 143.193 11.2324C143.182 12.334 143.164 13.4707 143.141 14.6426C143.129 15.8145 143.111 16.957 143.088 18.0703C143.076 19.1836 143.064 20.2441 143.053 21.252C143.041 22.2598 143.029 23.1504 143.018 23.9238C143.205 23.3262 143.445 22.6992 143.738 22.043C144.031 21.375 144.377 20.7598 144.775 20.1973C145.174 19.6348 145.619 19.1719 146.111 18.8086C146.615 18.4453 147.172 18.2637 147.781 18.2637C148.121 18.2637 148.438 18.3281 148.73 18.457C149.023 18.5742 149.275 18.7441 149.486 18.9668C149.709 19.1777 149.879 19.4297 149.996 19.7227C150.125 20.0156 150.189 20.332 150.189 20.6719C150.189 21.1992 150.072 21.6855 149.838 22.1309C149.604 22.5645 149.293 22.957 148.906 23.3086C148.52 23.6484 148.074 23.9473 147.57 24.2051C147.078 24.4629 146.568 24.6738 146.041 24.8379ZM167.785 22.0957C167.738 22.1895 167.639 22.3887 167.486 22.6934C167.346 22.9863 167.158 23.3262 166.924 23.7129C166.701 24.0996 166.438 24.5039 166.133 24.9258C165.828 25.3477 165.488 25.7344 165.113 26.0859C164.738 26.4375 164.334 26.7305 163.9 26.9648C163.467 27.1875 163.01 27.2988 162.529 27.2988C161.85 27.2988 161.275 27.082 160.807 26.6484C160.35 26.2148 160.016 25.6699 159.805 25.0137C159.406 25.6816 158.932 26.2148 158.381 26.6133C157.83 27 157.279 27.1934 156.729 27.1934C156.295 27.1934 155.902 27.1172 155.551 26.9648C155.199 26.8008 154.9 26.5781 154.654 26.2969C154.408 26.0039 154.215 25.6641 154.074 25.2773C153.945 24.8906 153.881 24.4688 153.881 24.0117C153.881 23.0977 154.033 22.2949 154.338 21.6035C154.654 20.9004 155.053 20.3145 155.533 19.8457C156.014 19.377 156.541 19.0254 157.115 18.791C157.701 18.5566 158.264 18.4395 158.803 18.4395C159.166 18.4395 159.5 18.4922 159.805 18.5977C160.109 18.6914 160.367 18.7969 160.578 18.9141C160.801 19.0312 160.971 19.1426 161.088 19.248C161.205 19.3418 161.27 19.3945 161.281 19.4062C161.41 19.5586 161.475 19.7168 161.475 19.8809C161.475 20.0566 161.41 20.2148 161.281 20.3555C161.152 20.4844 161 20.5488 160.824 20.5488C160.637 20.5488 160.479 20.4844 160.35 20.3555C160.326 20.332 160.273 20.291 160.191 20.2324C160.109 20.1621 159.998 20.0918 159.857 20.0215C159.717 19.9512 159.547 19.8926 159.348 19.8457C159.16 19.7871 158.943 19.7578 158.697 19.7578C158.334 19.7578 157.947 19.8398 157.537 20.0039C157.127 20.168 156.752 20.4258 156.412 20.7773C156.072 21.1172 155.785 21.5508 155.551 22.0781C155.328 22.5938 155.217 23.209 155.217 23.9238C155.217 24.1465 155.24 24.375 155.287 24.6094C155.334 24.832 155.416 25.0371 155.533 25.2246C155.65 25.4121 155.809 25.5645 156.008 25.6816C156.207 25.7988 156.453 25.8574 156.746 25.8574C156.957 25.8574 157.197 25.7871 157.467 25.6465C157.748 25.5059 158.012 25.2891 158.258 24.9961C158.516 24.7031 158.744 24.334 158.943 23.8887C159.154 23.4434 159.301 22.916 159.383 22.3066C159.406 22.1426 159.482 22.0078 159.611 21.9023C159.74 21.7852 159.893 21.7266 160.068 21.7266C160.232 21.7266 160.373 21.791 160.49 21.9199C160.619 22.0488 160.689 22.1953 160.701 22.3594C160.713 22.582 160.736 22.8984 160.771 23.3086C160.807 23.707 160.883 24.1055 161 24.5039C161.129 24.9023 161.316 25.248 161.562 25.541C161.809 25.834 162.148 25.9805 162.582 25.9805C162.863 25.9805 163.139 25.9043 163.408 25.752C163.689 25.5996 163.959 25.4004 164.217 25.1543C164.486 24.8965 164.738 24.6094 164.973 24.293C165.219 23.9648 165.441 23.6367 165.641 23.3086C165.84 22.9805 166.016 22.6641 166.168 22.3594C166.32 22.0547 166.449 21.791 166.555 21.5684C166.613 21.4395 166.695 21.3398 166.801 21.2695C166.918 21.1992 167.041 21.1641 167.17 21.1641C167.369 21.1641 167.527 21.2402 167.645 21.3926C167.773 21.5332 167.838 21.6855 167.838 21.8496C167.838 21.9316 167.82 22.0137 167.785 22.0957Z" fill="black"/>
</g>
<defs>
<filter id="filter0_d_4:14" x="0.150391" y="0.966797" width="171.688" height="34.9824" filterUnits="userSpaceOnUse" color-interpolation-filters="sRGB">
<feFlood flood-opacity="0" result="BackgroundImageFix"/>
<feColorMatrix in="SourceAlpha" type="matrix" values="0 0 0 0 0 0 0 0 0 0 0 0 0 0 0 0 0 0 127 0" result="hardAlpha"/>
<feOffset dy="4"/>
<feGaussianBlur stdDeviation="2"/>
<feComposite in2="hardAlpha" operator="out"/>
<feColorMatrix type="matrix" values="0 0 0 0 0 0 0 0 0 0 0 0 0 0 0 0 0 0 0.25 0"/>
<feBlend mode="normal" in2="BackgroundImageFix" result="effect1_dropShadow_4:14"/>
<feBlend mode="normal" in="SourceGraphic" in2="effect1_dropShadow_4:14" result="shape"/>
</filter>
</defs>
</svg>
