<svg xmlns="http://www.w3.org/2000/svg" xmlns:xlink="http://www.w3.org/1999/xlink" viewBox="0 0 45.88 35.95"><defs><style>.a{fill:url(#a);}</style><linearGradient id="a" y1="17.98" x2="45.88" y2="17.98" gradientUnits="userSpaceOnUse"><stop offset="0" stop-color="#2484c6"/><stop offset="1" stop-color="#2484c6"/></linearGradient></defs><path class="a" d="M45.1,23.94c-.53-.93-1.08-.37-1.52-.19Q30.44,29.12,17.32,34.56a1.38,1.38,0,0,1-1.53-.18c-4.7-3.38-9.4-6.75-14.17-10a2,2,0,0,1-.86-2.52c.32.2.6.35.85.53,4.75,3.37,9.51,6.73,14.24,10.13a1.58,1.58,0,0,0,1.79.19q13.53-5.61,27.08-11.18a12,12,0,0,0,1.16-.65l-4.91-2c-.21.74.23,1.5-.86,1.76Q26,24.12,11.9,27.71a1.31,1.31,0,0,1-1.53-.5C7.93,24.44,5.5,21.65,3,19c-.85-.91-.78-1.83-.68-3,2.79,2.89,5.48,5.65,8.16,8.43a1.06,1.06,0,0,0,1.2.35c5.25-1.3,10.51-2.61,15.79-3.8,4.11-.92,8.26-1.68,12.4-2.49,1.11-.22,2.24-.38,3.37-.56l0-.38a5.23,5.23,0,0,0-1.33-.2c-2.84.33-5.67.72-8.51,1.08L22,19.8a1.62,1.62,0,0,1,.68-.53c1.59-.76,3.17-1.53,4.78-2.25a6.34,6.34,0,0,1,1.71-.5c4-.52,8-1,12-1.5.72-.09,1.43-.24,2.39-.4l-3.63-3.18,3.15-1.57c-.61-.68-1.15-.42-1.7-.17Q31.23,14.34,21.06,19a2.05,2.05,0,0,1-1.38.18c-5-1.94-9.95-3.92-14.92-5.92a.9.9,0,0,1-.53-.59C4.11,11.2,4.07,9.78,4,8.22c.55.2,1,.34,1.41.51,4.53,1.74,9.05,3.49,13.58,5.2a1.9,1.9,0,0,0,1.29,0Q31,9.42,41.76,4.84c.37-.16.7-.39,1.17-.65-.34-.15-.49-.24-.65-.29C37.57,2.63,32.86,1.34,28.14.1a3.11,3.11,0,0,0-1.63,0c-7.14,2.31-14.27,4.66-21.4,7-2,.64-2.13.92-2,3,0,.16,0,.33,0,.5.08,1.53.39,2.91,2.15,3.37.11,0,.2.15.43.33-1,.21-1.93.47-2.84.56s-1.36.63-1.39,1.61A4.25,4.25,0,0,0,3,20c-.64.22-1.11.37-1.57.55S.05,20.73.06,21.62s-.38,2.06.68,2.84Q8.28,30,15.79,35.66a1.16,1.16,0,0,0,1.35.14q8.52-3.64,17.06-7.24Z"/></svg>