<svg width="161" height="127" viewBox="0 0 161 127" fill="none" xmlns="http://www.w3.org/2000/svg">
<g clip-path="url(#clip0_4:8)">
<path d="M158.262 84.5723C156.402 81.2869 154.472 83.2652 152.928 83.9011C122.188 96.5481 91.4709 109.278 60.7775 122.089C59.9212 122.533 58.953 122.709 57.9967 122.596C57.0403 122.483 56.1392 122.085 55.4085 121.454C38.9155 109.513 22.4225 97.6079 5.68382 86.1267C4.18294 85.2745 3.04591 83.8963 2.48937 82.2546C1.93284 80.6128 1.99569 78.8224 2.66595 77.2243C3.78888 77.9309 4.77144 78.4608 5.64873 79.0966C22.3172 91.0018 39.0208 102.872 55.6191 114.883C56.4738 115.625 57.5331 116.087 58.6556 116.207C59.778 116.327 60.9101 116.099 61.9005 115.554C93.553 102.342 125.229 89.1766 156.928 76.0585C158.326 75.3694 159.685 74.6028 160.999 73.7623L143.769 66.6969C143.032 69.3111 144.576 71.9959 140.751 72.9144C107.742 81.1103 74.744 89.4356 41.7579 97.8905C40.7954 98.2395 39.7446 98.2553 38.7722 97.9354C37.7997 97.6155 36.961 96.9781 36.3889 96.1242C27.8266 86.3386 19.2993 76.4824 10.5265 67.1208C7.54367 63.9061 7.78931 60.656 8.14023 56.5228C17.9308 66.7322 27.3704 76.4825 36.7749 86.3033C37.2561 86.9321 37.9232 87.3907 38.6801 87.6129C39.437 87.8351 40.2444 87.8095 40.9859 87.5398C59.409 82.9473 77.8671 78.3194 96.3955 74.1155C110.818 70.8655 125.381 68.1806 139.909 65.3192C143.804 64.542 147.769 63.9767 151.735 63.3409V61.9984C150.216 61.5617 148.647 61.3242 147.068 61.2919C137.102 62.4577 127.171 63.8354 117.205 65.1072L77.2004 69.947C77.8132 69.1173 78.6378 68.4703 79.5866 68.0747C85.1662 65.3898 90.7106 62.6697 96.3604 60.1261C98.268 59.2559 100.288 58.6613 102.361 58.3598C116.398 56.5228 130.434 54.8271 144.471 53.0608C146.997 52.7428 149.489 52.2129 152.858 51.6477L140.12 40.4137L151.173 34.8674C149.033 32.4652 147.138 33.3837 145.208 34.2669C121.463 45.1946 97.6938 56.146 73.9018 67.1208C72.4106 67.8948 70.6976 68.1197 69.0592 67.7567C51.5134 60.9033 34.1431 53.9086 16.7026 46.8432C16.255 46.6619 15.8547 46.3797 15.5323 46.0184C15.2099 45.6571 14.974 45.2263 14.8427 44.7589C14.4216 39.5659 14.2813 34.5495 14.0356 29.0385C15.9656 29.745 17.5448 30.2396 18.9835 30.8402C34.88 36.987 50.7414 43.1692 66.6378 49.2101C68.1006 49.7416 69.7019 49.7416 71.1646 49.2101C96.2434 38.5885 121.369 27.8845 146.541 17.098C147.84 16.5328 148.998 15.7203 150.647 14.8018C149.454 14.2719 148.927 13.9539 148.366 13.7773C131.838 9.2908 115.31 4.73363 98.7466 0.353106C96.8739 -0.15884 94.8994 -0.15884 93.0267 0.353106C67.9713 8.51361 42.951 16.8154 17.9308 25.0819C10.9125 27.3428 10.4563 28.332 10.9125 35.6799C10.9125 36.2452 10.9125 36.8457 10.9125 37.4463C11.1932 42.8513 12.281 47.7264 18.4571 49.3514C18.8432 49.3514 19.159 49.8813 19.9661 50.5172C16.4569 51.2591 13.1934 52.1776 10.0001 52.4955C6.80675 52.8135 5.22763 54.7211 5.12236 58.1831C4.9842 60.5433 5.40165 62.9029 6.34074 65.0699C7.27982 67.2369 8.71398 69.1501 10.5265 70.6535C8.2806 71.4307 6.63129 71.9606 5.01708 72.5965C3.40287 73.2324 0.17445 73.2324 0.209541 76.3765C0.244633 79.5206 -1.12394 83.6538 2.59577 86.4093C20.2351 99.4567 37.8394 112.645 55.4085 125.975C56.0466 126.548 56.8476 126.904 57.6979 126.993C58.5482 127.082 59.4047 126.899 60.1459 126.47C80.0779 117.897 100.033 109.372 120.012 100.893L158.262 84.5723Z" fill="url(#paint0_linear_4:8)"/>
</g>
<defs>
<linearGradient id="paint0_linear_4:8" x1="-0.00100768" y1="63.5175" x2="160.999" y2="63.5175" gradientUnits="userSpaceOnUse">
<stop stop-color="#2484C6"/>
<stop offset="1" stop-color="#2484C6"/>
</linearGradient>
<clipPath id="clip0_4:8">
<rect width="161" height="127" fill="white"/>
</clipPath>
</defs>
</svg>
